<svg width="48" height="48" viewBox="0 0 48 48" fill="none" xmlns="http://www.w3.org/2000/svg">
<path d="M16.875 16.9688C17.4375 16.4062 18.4688 16.4062 19.0312 16.9688L24 21.9375L28.875 16.9688C29.4375 16.4062 30.4688 16.4062 31.0312 16.9688C31.5938 17.5312 31.5938 18.5625 31.0312 19.125L26.0625 24L31.0312 28.9688C31.5938 29.5312 31.5938 30.5625 31.0312 31.125C30.4688 31.6875 29.4375 31.6875 28.875 31.125L24 26.1562L19.0312 31.125C18.4688 31.6875 17.4375 31.6875 16.875 31.125C16.3125 30.5625 16.3125 29.5312 16.875 28.9688L21.8438 24L16.875 19.125C16.3125 18.5625 16.3125 17.5312 16.875 16.9688ZM48 24C48 37.3125 37.2188 48 24 48C10.6875 48 0 37.3125 0 24C0 10.7812 10.6875 0 24 0C37.2188 0 48 10.7812 48 24ZM24 3C12.375 3 3 12.4688 3 24C3 35.625 12.375 45 24 45C35.5312 45 45 35.625 45 24C45 12.4688 35.5312 3 24 3Z" fill="#5E5384"/>
</svg>
