<svg width="14" height="18" viewBox="0 0 14 18" fill="none" xmlns="http://www.w3.org/2000/svg">
<path d="M13 14.3333V9.66663C13 8.19387 11.8061 6.99996 10.3333 6.99996H8.94737C8.39508 6.99996 7.94737 6.55224 7.94737 5.99996V4.33329C7.94737 2.86053 6.75346 1.66663 5.2807 1.66663H3M13 14.3333C13 15.4379 12.1046 16.3333 11 16.3333H3C1.89543 16.3333 1 15.4379 1 14.3333V3.66663C1 2.56206 1.89543 1.66663 3 1.66663M13 14.3333V9.85643C13 8.44218 12.5004 7.07339 11.5895 5.99162L9.74542 3.80181C8.60539 2.44802 6.92581 1.66663 5.15595 1.66663H3" stroke="#ffffff" stroke-width="2"/>
</svg>
