<svg width="32" height="32" viewBox="0 0 32 32" fill="none" xmlns="http://www.w3.org/2000/svg">
<path d="M15 22V17H10C9.4375 17 9 16.5625 9 16C9 15.5 9.4375 15 10 15H15V10C15 9.5 15.4375 9 16 9C16.5 9 17 9.5 17 10V15H22C22.5 15 23 15.5 23 16C23 16.5625 22.5 17 22 17H17V22C17 22.5625 16.5 23 16 23C15.4375 23 15 22.5625 15 22ZM32 16C32 24.875 24.8125 32 16 32C7.125 32 0 24.875 0 16C0 7.1875 7.125 0 16 0C24.8125 0 32 7.1875 32 16ZM16 2C8.25 2 2 8.3125 2 16C2 23.75 8.25 30 16 30C23.6875 30 30 23.75 30 16C30 8.3125 23.6875 2 16 2Z" fill="#5E5384"/>
</svg>
