<svg width="35" height="31" viewBox="0 0 35 31" fill="none" xmlns="http://www.w3.org/2000/svg">
    <path d="M34.1992 29.3438L28.9844 24.1289C29.9805 22.8398 30.625 21.2578 30.625 19.5C30.625 15.3984 27.2266 12 23.125 12C18.9648 12 15.625 15.3984 15.625 19.5C15.625 23.6602 18.9648 27 23.125 27C24.8242 27 26.4062 26.4141 27.6953 25.418L32.9102 30.6328C32.9688 30.75 33.0859 30.75 33.2031 30.75C33.3203 30.75 33.4375 30.75 33.5547 30.6328L34.1992 29.9883C34.3164 29.8711 34.375 29.7539 34.375 29.6367C34.375 29.5195 34.3164 29.4023 34.1992 29.3438ZM23.125 25.125C20.0195 25.125 17.5 22.6055 17.5 19.5C17.5 16.4531 20.0195 13.875 23.125 13.875C26.2305 13.875 28.75 16.4531 28.75 19.5C28.6914 22.6055 26.2305 25.125 23.125 25.125ZM20.3125 28.875H3.4375C2.91016 28.875 2.5 28.4648 2.5 27.9375V3.62109C2.5 3.09375 2.91016 2.68359 3.4375 2.68359H13.75V8.77734C13.75 9.53906 14.3359 10.1836 15.0977 10.1836C15.0977 10.1836 15.0977 10.1836 15.1562 10.1836L23.125 10.125V8.48438C23.0664 7.72266 22.7734 7.01953 22.2461 6.49219L17.3828 1.62891C16.8555 1.10156 16.1523 0.808594 15.3906 0.75H3.4375C1.85547 0.808594 0.625 2.03906 0.625 3.62109V27.9375C0.625 29.5195 1.85547 30.75 3.4375 30.75H20.3125C21.4844 30.75 22.5391 29.9883 22.9492 28.875C22.2461 28.875 21.6016 28.7578 20.957 28.6406C20.7812 28.8164 20.5469 28.875 20.3125 28.875ZM15.625 2.68359C15.7422 2.74219 15.918 2.80078 16.0352 2.91797L20.957 7.83984C21.0742 7.95703 21.1328 8.13281 21.1914 8.30859H15.625V2.68359Z" fill="#FBFAFF"/>
</svg>