<svg width="30" height="24" viewBox="0 0 30 24" fill="none" xmlns="http://www.w3.org/2000/svg">
<path d="M8.20312 3.75C8.20312 5.15625 7.26562 6.32812 5.95312 6.65625V12H16.5V6.65625C15.1875 6.32812 14.2031 5.15625 14.2031 3.75C14.2031 2.10938 15.5625 0.75 17.25 0.75C18.8906 0.75 20.25 2.10938 20.25 3.75C20.25 5.15625 19.2656 6.32812 18 6.65625V12H27.1406L24.2344 9.60938C23.9062 9.32812 23.9062 8.85938 24.1406 8.53125C24.4219 8.20312 24.8906 8.20312 25.2188 8.4375L29.7188 12.1875C29.7188 12.2344 29.7656 12.2344 29.7656 12.2812C29.9062 12.375 30 12.5625 30 12.75C30 12.7969 29.9531 12.7969 29.9531 12.7969C29.9531 12.9844 29.9062 13.125 29.8125 13.2656C29.7656 13.2656 29.7656 13.3125 29.7188 13.3594L25.2188 17.1094C24.8906 17.3438 24.4219 17.2969 24.1406 17.0156C23.9062 16.6875 23.9062 16.2188 24.2344 15.9375L27.1406 13.5H12V17.3438C13.2656 17.7188 14.25 18.8906 14.25 20.25C14.25 21.9375 12.8906 23.25 11.25 23.25C9.5625 23.25 8.25 21.9375 8.25 20.25C8.25 18.8906 9.1875 17.7188 10.5 17.3438V13.5H0.75C0.328125 13.5 0 13.1719 0 12.75C0 12.375 0.328125 12 0.75 12H4.5V6.65625C3.1875 6.32812 2.25 5.15625 2.25 3.75C2.25 2.10938 3.5625 0.75 5.25 0.75C6.89062 0.75 8.25 2.10938 8.25 3.75H8.20312ZM5.20312 2.25C4.40625 2.25 3.70312 2.95312 3.70312 3.75C3.70312 4.59375 4.40625 5.25 5.20312 5.25C6.04688 5.25 6.70312 4.59375 6.70312 3.75C6.70312 2.95312 6.04688 2.25 5.20312 2.25ZM11.2031 21.75C12.0469 21.75 12.7031 21.0938 12.7031 20.25C12.7031 19.4531 12.0469 18.75 11.2031 18.75C10.4062 18.75 9.70312 19.4531 9.70312 20.25C9.70312 21.0938 10.4062 21.75 11.2031 21.75ZM17.25 2.25C16.4062 2.25 15.75 2.95312 15.75 3.75C15.75 4.59375 16.4062 5.25 17.25 5.25C18.0469 5.25 18.75 4.59375 18.75 3.75C18.75 2.95312 18.0469 2.25 17.25 2.25Z" fill="white"/>
</svg>
