<svg width="18" height="24" viewBox="0 0 18 24" fill="none" xmlns="http://www.w3.org/2000/svg">
<path d="M17.2969 4.59375C17.7188 5.01562 18 5.625 18 6.1875V21.75C18 23.0156 16.9688 24 15.75 24H2.25C0.984375 24 0 23.0156 0 21.75V2.25C0 1.03125 0.984375 0 2.25 0H11.8125C12.375 0 12.9844 0.234375 13.4062 0.65625L17.2969 4.59375ZM16.2656 5.67188L12.3281 1.73438C12.2344 1.64062 12.0938 1.59375 12 1.54688V6H16.4531C16.4062 5.90625 16.3594 5.76562 16.2656 5.67188ZM15.75 22.5C16.125 22.5 16.5 22.1719 16.5 21.75V7.5H11.625C10.9688 7.5 10.5 7.03125 10.5 6.375V1.5H2.25C1.82812 1.5 1.5 1.875 1.5 2.25V21.75C1.5 22.1719 1.82812 22.5 2.25 22.5H15.75ZM13.5 11.0625V11.4375C13.5 11.7656 13.2188 12 12.9375 12H5.0625C4.73438 12 4.5 11.7656 4.5 11.4375V11.0625C4.5 10.7812 4.73438 10.5 5.0625 10.5H12.9375C13.2188 10.5 13.5 10.7812 13.5 11.0625ZM13.5 14.0625V14.4375C13.5 14.7656 13.2188 15 12.9375 15H5.0625C4.73438 15 4.5 14.7656 4.5 14.4375V14.0625C4.5 13.7812 4.73438 13.5 5.0625 13.5H12.9375C13.2188 13.5 13.5 13.7812 13.5 14.0625ZM13.5 17.0625V17.4375C13.5 17.7656 13.2188 18 12.9375 18H5.0625C4.73438 18 4.5 17.7656 4.5 17.4375V17.0625C4.5 16.7812 4.73438 16.5 5.0625 16.5H12.9375C13.2188 16.5 13.5 16.7812 13.5 17.0625Z" fill="#5E5384"/>
</svg>
