<svg width="752" height="912" viewBox="0 0 752 912" fill="none" xmlns="http://www.w3.org/2000/svg">
<path d="M359.537 68.1894C359.537 68.1894 224.421 -167 515.191 242.255C805.962 651.51 862.408 460.766 872.661 321.885C882.93 183.005 573.339 977.434 337.298 503.369C101.258 29.3035 629.786 421.896 670.829 277.44C711.889 132.999 359.537 68.1894 359.537 68.1894Z" stroke="#D9DBE9" stroke-width="1.27863" stroke-miterlimit="10"/>
<path d="M361.773 71.9846C360.608 71.4177 232.61 -155.63 515.632 250.334C798.654 656.298 859.699 463.459 868.755 325.05C877.811 186.642 569.543 976.551 335.834 507.164C102.124 37.7764 622.95 427.061 668.089 282.511C713.227 137.96 362.923 72.5674 361.773 71.9846Z" stroke="#D9DBE9" stroke-width="1.27863" stroke-miterlimit="10"/>
<path d="M363.995 75.8271C361.68 74.6774 240.785 -144.227 516.058 258.46C791.331 661.148 856.975 466.199 864.835 328.263C872.694 190.327 565.732 975.685 334.37 511.006C103.007 46.3279 616.1 432.274 665.349 287.597C714.598 142.921 366.31 76.9611 363.995 75.8271Z" stroke="#D9DBE9" stroke-width="1.27863" stroke-miterlimit="10"/>
<path d="M366.215 79.6869C362.734 77.9702 248.974 -132.808 516.483 266.604C783.991 666.016 854.25 468.956 860.896 331.493C867.543 194.03 561.92 974.851 332.889 514.866C103.857 54.8812 609.248 437.504 662.576 292.717C715.905 147.93 369.68 81.4036 366.215 79.6869Z" stroke="#D9DBE9" stroke-width="1.27863" stroke-miterlimit="10"/>
<path d="M368.435 83.5766C363.805 81.2771 257.148 -121.358 516.908 274.778C776.667 670.913 851.525 471.743 856.975 334.752C862.424 197.762 558.093 974.047 331.408 518.756C104.723 63.4643 602.397 442.764 659.82 297.867C717.243 152.97 373.066 85.876 368.435 83.5766Z" stroke="#D9DBE9" stroke-width="1.27863" stroke-miterlimit="10"/>
<path d="M370.641 87.4979C364.845 84.6314 265.307 -109.877 517.333 282.983C769.359 675.843 848.801 474.562 853.053 338.044C857.306 201.526 554.282 973.291 329.928 522.693C105.574 72.0947 595.546 448.071 657.064 303.064C718.583 158.056 376.437 90.3643 370.641 87.4979Z" stroke="#D9DBE9" stroke-width="1.27863" stroke-miterlimit="10"/>
<path d="M372.861 91.4671C365.9 88.0336 273.496 -98.348 517.758 291.236C762.02 680.82 846.076 477.444 849.115 341.383C852.155 205.337 550.47 972.551 328.447 526.646C106.424 80.7416 588.679 453.395 654.308 308.277C719.936 163.16 379.806 94.9005 372.861 91.4671Z" stroke="#D9DBE9" stroke-width="1.27863" stroke-miterlimit="10"/>
<path d="M375.066 95.4677C366.955 91.4515 281.655 -86.7875 518.167 299.52C754.68 685.828 843.335 480.342 845.178 344.754C847.021 209.165 546.627 971.874 326.951 530.663C107.274 89.4513 581.812 458.781 651.52 313.538C721.228 168.294 383.177 99.4839 375.066 95.4677Z" stroke="#D9DBE9" stroke-width="1.27863" stroke-miterlimit="10"/>
<path d="M377.271 99.5006C367.994 94.9174 289.829 -75.1948 518.577 307.837C747.325 690.869 840.611 483.273 841.241 348.156C841.871 213.056 542.816 971.198 325.47 534.68C108.125 98.1618 574.961 464.184 648.764 318.815C722.567 173.445 386.547 104.099 377.271 99.5006Z" stroke="#D9DBE9" stroke-width="1.27863" stroke-miterlimit="10"/>
<path d="M379.476 103.579C369.05 98.4128 297.987 -63.541 518.986 316.199C739.986 695.94 837.87 486.248 837.287 351.605C836.705 216.961 538.973 970.614 323.974 538.789C108.975 106.965 568.094 469.664 645.992 324.184C723.89 178.705 389.902 108.745 379.476 103.579Z" stroke="#D9DBE9" stroke-width="1.27863" stroke-miterlimit="10"/>
<path d="M381.665 107.706C370.073 101.973 306.129 -51.8538 519.396 324.611C732.662 701.075 835.129 489.274 833.35 355.118C831.57 220.962 535.145 970.048 322.478 542.917C109.81 115.786 561.211 475.162 643.22 329.572C725.228 183.982 393.257 113.439 381.665 107.706Z" stroke="#D9DBE9" stroke-width="1.27863" stroke-miterlimit="10"/>
<path d="M383.855 111.878C371.113 105.579 314.288 -40.1216 519.79 333.067C725.292 706.255 832.374 492.343 829.381 358.66C826.389 224.977 531.287 969.527 320.966 547.089C110.645 124.651 554.329 480.704 640.417 335.004C726.505 189.304 396.596 118.178 383.855 111.878Z" stroke="#D9DBE9" stroke-width="1.27863" stroke-miterlimit="10"/>
<path d="M386.028 116.1C372.121 109.218 322.415 -28.3401 520.168 341.573C717.921 711.485 829.602 495.463 825.413 362.252C821.223 229.041 527.429 969.055 319.439 551.311C111.448 133.567 547.431 486.296 637.613 340.486C727.796 194.675 399.935 122.967 386.028 116.1Z" stroke="#D9DBE9" stroke-width="1.27863" stroke-miterlimit="10"/>
<path d="M388.202 120.368C373.129 112.919 330.558 -16.5123 520.546 350.124C710.534 716.761 826.83 498.628 821.444 365.89C816.057 233.152 523.57 968.63 317.927 555.579C112.283 142.528 540.548 491.934 634.826 346.014C729.103 200.093 403.274 127.818 388.202 120.368Z" stroke="#D9DBE9" stroke-width="1.27863" stroke-miterlimit="10"/>
<path d="M390.375 124.684C374.153 116.652 338.684 -4.63668 520.924 358.724C703.163 722.085 824.058 501.841 817.459 369.576C810.86 237.31 519.711 968.252 316.383 559.895C113.055 151.537 533.618 497.62 632.006 351.574C730.395 205.527 406.597 132.716 390.375 124.684Z" stroke="#D9DBE9" stroke-width="1.27863" stroke-miterlimit="10"/>
<path d="M392.533 129.062C375.146 120.462 346.796 7.301 521.287 367.386C695.777 727.471 821.271 505.117 813.475 373.323C805.679 241.53 515.837 967.936 314.856 564.272C113.874 160.608 526.72 503.384 629.188 357.211C731.655 211.039 409.921 137.661 392.533 129.062Z" stroke="#D9DBE9" stroke-width="1.27863" stroke-miterlimit="10"/>
<path d="M394.706 133.487C376.169 124.321 354.938 19.286 521.68 376.095C688.422 732.904 818.514 508.439 809.521 377.119C800.512 245.798 511.994 967.668 313.343 568.698C114.693 169.727 519.837 509.18 626.4 362.897C732.962 216.614 413.244 142.669 394.706 133.487Z" stroke="#D9DBE9" stroke-width="1.27863" stroke-miterlimit="10"/>
<path d="M396.863 137.992C377.16 128.243 363.049 31.3663 522.042 384.883C681.034 738.401 815.726 511.842 805.52 380.993C795.314 250.145 508.087 967.48 311.783 573.202C115.479 178.925 512.907 515.054 623.564 368.661C734.221 222.268 416.566 147.741 396.863 137.992Z" stroke="#D9DBE9" stroke-width="1.27863" stroke-miterlimit="10"/>
<path d="M399.006 142.543C378.137 132.227 371.145 43.4772 522.389 393.718C673.633 743.96 812.923 515.29 801.52 384.914C790.101 254.539 504.213 967.337 310.24 577.753C116.268 188.169 505.993 520.992 620.745 374.488C735.497 227.985 419.874 152.859 399.006 142.543Z" stroke="#D9DBE9" stroke-width="1.27863" stroke-miterlimit="10"/>
<path d="M401.163 147.174C379.145 136.275 379.271 55.6686 522.75 402.634C666.23 749.599 810.135 518.819 797.519 388.916C784.904 259.013 500.323 967.275 308.697 582.385C117.07 197.494 499.063 526.978 617.91 380.364C736.757 233.75 423.181 158.057 401.163 147.174Z" stroke="#D9DBE9" stroke-width="1.27863" stroke-miterlimit="10"/>
<path d="M403.321 151.851C380.138 140.385 387.383 67.9054 523.113 411.595C658.844 755.284 807.363 522.394 793.535 392.963C779.707 263.532 496.449 967.259 307.154 587.062C117.858 206.865 492.149 533.025 615.091 386.285C738.033 239.545 426.489 163.317 403.321 151.851Z" stroke="#D9DBE9" stroke-width="1.27863" stroke-miterlimit="10"/>
<path d="M405.463 156.608C381.13 144.575 395.494 80.2222 523.476 420.636C651.458 761.049 804.576 526.048 789.551 397.09C774.525 268.132 492.575 967.322 305.626 591.834C118.678 216.347 485.251 539.168 612.288 392.318C739.325 245.468 429.797 168.657 405.463 156.608Z" stroke="#D9DBE9" stroke-width="1.27863" stroke-miterlimit="10"/>
<path d="M407.62 161.444C382.122 148.829 403.604 92.618 523.837 429.755C644.07 766.893 801.787 529.782 785.549 401.296C769.312 272.81 488.684 967.481 304.066 596.671C119.449 225.86 478.321 545.39 609.452 398.414C740.584 251.438 433.103 174.044 407.62 161.444Z" stroke="#D9DBE9" stroke-width="1.27863" stroke-miterlimit="10"/>
<path d="M409.763 166.325C383.115 153.142 411.701 105.059 524.185 438.92C636.669 772.782 798.985 533.576 781.55 405.562C764.115 277.549 484.811 967.668 302.524 601.567C120.237 235.466 471.392 551.641 606.619 404.57C741.845 257.5 436.412 179.507 409.763 166.325Z" stroke="#D9DBE9" stroke-width="1.27863" stroke-miterlimit="10"/>
<path d="M411.904 171.287C384.09 157.522 419.81 117.58 524.53 448.166C629.25 778.752 796.18 537.42 777.549 409.894C758.917 282.354 480.919 967.937 300.963 606.529C121.008 245.121 464.461 557.989 603.782 410.792C743.104 263.596 439.718 185.036 411.904 171.287Z" stroke="#D9DBE9" stroke-width="1.27863" stroke-miterlimit="10"/>
<path d="M414.046 176.295C385.067 161.963 427.906 130.164 524.876 457.458C621.847 784.752 793.377 541.325 773.532 414.272C753.688 287.22 477.029 968.267 299.404 611.537C121.779 254.807 457.531 564.367 600.947 417.06C744.364 269.753 443.025 190.627 414.046 176.295Z" stroke="#D9DBE9" stroke-width="1.27863" stroke-miterlimit="10"/>
<path d="M416.204 181.382C386.075 166.482 436.017 142.811 525.255 466.829C614.493 790.847 790.605 545.309 769.564 418.729C748.522 292.149 473.155 968.661 297.877 616.624C122.599 264.587 450.633 570.824 598.144 423.407C745.656 275.99 446.333 196.281 416.204 181.382Z" stroke="#D9DBE9" stroke-width="1.27863" stroke-miterlimit="10"/>
<path d="M418.346 186.517C387.051 171.035 444.128 155.506 525.601 476.248C607.074 796.99 787.802 549.342 765.547 423.235C743.293 297.127 469.249 969.103 296.318 621.759C123.386 274.416 443.687 577.329 595.294 429.787C746.9 282.244 449.641 201.999 418.346 186.517Z" stroke="#D9DBE9" stroke-width="1.27863" stroke-miterlimit="10"/>
<path d="M420.488 191.698C388.044 175.649 452.224 168.246 525.948 485.713C599.672 803.179 784.998 553.42 761.547 427.785C738.096 302.15 465.359 969.59 294.758 626.94C124.158 284.29 436.757 583.88 592.459 436.227C748.16 288.574 452.932 207.747 420.488 191.698Z" stroke="#D9DBE9" stroke-width="1.27863" stroke-miterlimit="10"/>
<path d="M422.63 196.927C389.02 180.295 460.334 181.035 526.294 495.226C592.254 809.416 782.195 557.547 757.547 432.384C732.898 307.222 461.468 970.126 293.215 632.169C124.961 294.213 429.843 590.495 589.639 442.716C749.435 294.937 456.239 213.543 422.63 196.927Z" stroke="#D9DBE9" stroke-width="1.27863" stroke-miterlimit="10"/>
<path d="M424.788 202.187C390.013 184.988 468.446 193.856 526.657 504.77C584.868 815.684 779.408 561.721 753.547 437.015C727.686 312.325 457.579 970.692 291.656 637.445C125.734 304.198 422.914 597.142 586.805 449.252C750.696 301.363 459.548 219.386 424.788 202.187Z" stroke="#D9DBE9" stroke-width="1.27863" stroke-miterlimit="10"/>
<path d="M426.93 207.479C391.005 189.713 476.541 206.707 527.003 514.346C577.465 821.984 776.62 565.91 749.546 441.677C722.472 317.443 453.704 971.307 290.112 642.737C126.521 314.167 416 603.804 583.97 455.804C751.94 307.804 462.855 225.26 426.93 207.479Z" stroke="#D9DBE9" stroke-width="1.27863" stroke-miterlimit="10"/>
<path d="M429.072 212.802C391.982 194.454 484.653 219.59 527.366 523.953C570.079 828.315 773.832 570.131 745.562 446.37C717.291 322.609 449.83 971.921 288.569 648.06C127.308 324.2 409.07 610.497 581.151 462.387C753.232 314.277 466.163 231.151 429.072 212.802Z" stroke="#D9DBE9" stroke-width="1.27863" stroke-miterlimit="10"/>
<path d="M431.23 218.158C392.989 199.243 492.764 232.522 527.728 533.592C562.692 834.663 771.045 574.384 741.561 451.096C712.078 327.807 445.924 972.583 287.01 653.416C128.096 334.249 402.14 617.223 578.316 469.003C754.492 320.783 469.47 237.073 431.23 218.158Z" stroke="#D9DBE9" stroke-width="1.27863" stroke-miterlimit="10"/>
<path d="M433.371 223.512C393.966 204.014 500.859 245.436 528.074 543.231C555.289 841.041 768.241 578.636 737.56 455.82C706.88 333.004 442.049 973.244 285.466 658.77C128.883 344.296 395.226 623.948 575.496 475.601C755.767 327.255 472.777 243.01 433.371 223.512Z" stroke="#D9DBE9" stroke-width="1.27863" stroke-miterlimit="10"/>
<path d="M435.529 228.883C394.958 208.818 508.986 258.366 528.436 552.885C547.887 847.404 765.453 582.904 733.576 460.56C701.699 338.233 438.175 973.921 283.923 664.141C129.67 354.36 388.312 630.688 572.661 482.232C757.011 333.776 476.084 248.948 435.529 228.883Z" stroke="#D9DBE9" stroke-width="1.27863" stroke-miterlimit="10"/>
<path d="M437.671 234.269C395.951 213.637 517.081 271.312 528.783 562.555C540.485 853.798 762.666 587.187 729.576 465.332C696.486 343.477 434.285 974.629 282.38 669.542C130.474 364.456 381.382 637.46 569.843 488.894C758.303 340.327 479.392 254.901 437.671 234.269Z" stroke="#D9DBE9" stroke-width="1.27863" stroke-miterlimit="10"/>
<path d="M439.829 239.671C396.942 218.456 525.208 284.274 529.161 572.241C533.114 860.208 759.878 591.487 725.591 470.089C691.304 348.706 430.41 975.323 280.836 674.929C131.261 374.535 374.467 644.233 567.023 495.54C759.579 346.847 482.715 260.87 439.829 239.671Z" stroke="#D9DBE9" stroke-width="1.27863" stroke-miterlimit="10"/>
<path d="M441.987 245.058C397.951 223.276 533.32 297.221 529.524 581.912C525.728 866.603 757.091 595.772 721.591 474.846C686.092 353.936 426.521 976.016 279.293 680.316C132.065 384.616 367.554 650.99 564.205 502.187C760.855 353.385 486.023 266.84 441.987 245.058Z" stroke="#D9DBE9" stroke-width="1.27863" stroke-miterlimit="10"/>
<path d="M444.144 250.46C398.943 228.096 541.43 310.183 529.885 591.598C518.341 873.013 754.303 600.072 717.606 479.634C680.909 359.196 422.646 976.741 277.749 685.734C132.852 394.727 360.64 657.778 561.369 508.865C762.099 359.952 489.346 272.825 444.144 250.46Z" stroke="#D9DBE9" stroke-width="1.27863" stroke-miterlimit="10"/>
<path d="M446.302 255.878C399.951 232.947 549.557 323.161 530.248 601.3C510.939 879.439 751.515 604.387 713.622 484.422C675.712 364.457 418.772 977.481 276.222 691.152C133.671 404.823 353.726 664.567 558.566 515.543C763.406 366.52 492.654 278.81 446.302 255.878Z" stroke="#D9DBE9" stroke-width="1.27863" stroke-miterlimit="10"/>
<path d="M448.46 261.28C400.943 237.781 557.668 336.138 530.61 610.986C503.552 885.849 748.727 608.686 709.621 489.193C670.514 369.701 414.897 978.189 274.662 696.554C134.427 414.918 346.795 671.338 555.731 522.189C764.666 373.04 495.976 284.778 448.46 261.28Z" stroke="#D9DBE9" stroke-width="1.27863" stroke-miterlimit="10"/>
<path d="M450.617 266.682C401.935 242.601 565.794 349.1 530.987 620.672C496.181 892.259 745.955 612.986 705.651 493.966C665.332 374.945 411.038 978.898 273.15 701.956C135.261 425.014 339.912 678.111 552.942 528.851C765.973 379.592 499.299 290.763 450.617 266.682Z" stroke="#D9DBE9" stroke-width="1.27863" stroke-miterlimit="10"/>
<path d="M452.791 272.1C402.96 247.451 573.922 362.077 531.367 630.373C488.811 898.685 743.2 617.301 701.684 498.753C660.167 380.205 407.18 979.622 271.623 707.373C136.066 435.124 333.015 684.914 550.124 535.544C767.234 386.174 502.623 296.748 452.791 272.1Z" stroke="#D9DBE9" stroke-width="1.27863" stroke-miterlimit="10"/>
<path d="M454.965 277.503C403.967 252.287 582.049 375.04 531.744 640.06C481.44 905.08 740.427 621.601 697.699 503.526C654.985 385.451 403.306 980.332 270.095 712.792C136.884 445.252 326.117 691.703 547.321 542.207C768.525 392.711 505.962 302.734 454.965 277.503Z" stroke="#D9DBE9" stroke-width="1.27863" stroke-miterlimit="10"/>
<path d="M457.138 282.92C404.991 257.122 590.191 388.017 532.122 649.761C474.053 911.505 737.655 625.916 693.73 508.313C649.804 390.711 399.447 981.056 268.567 718.209C137.687 455.363 319.202 698.491 544.517 548.885C769.832 399.278 509.285 308.718 457.138 282.92Z" stroke="#D9DBE9" stroke-width="1.27863" stroke-miterlimit="10"/>
<path d="M459.311 288.322C405.998 261.957 598.317 400.98 532.499 659.448C466.681 917.916 734.883 630.216 689.744 513.086C644.621 395.956 395.572 981.765 267.039 723.612C138.506 465.459 312.303 705.263 541.713 555.547C771.123 405.831 512.623 314.687 459.311 288.322Z" stroke="#D9DBE9" stroke-width="1.27863" stroke-miterlimit="10"/>
<path d="M461.485 293.724C407.007 266.776 606.445 413.941 532.878 669.133C459.311 924.325 732.111 634.515 685.776 517.857C639.44 401.2 391.714 982.473 265.512 729.013C139.31 475.554 305.406 712.035 538.894 562.209C772.383 412.382 515.963 320.672 461.485 293.724Z" stroke="#D9DBE9" stroke-width="1.27863" stroke-miterlimit="10"/>
<path d="M463.673 299.126C408.045 271.611 614.602 426.903 533.287 678.819C451.971 930.735 729.37 638.815 681.838 522.63C634.289 406.46 387.886 983.197 264.014 734.431C140.143 485.665 298.538 718.823 536.122 568.871C773.705 418.918 519.301 326.641 463.673 299.126Z" stroke="#D9DBE9" stroke-width="1.27863" stroke-miterlimit="10"/>
<path d="M465.863 304.53C409.069 276.448 622.745 439.883 533.681 688.507C444.616 937.131 726.614 643.116 677.869 527.403C629.124 411.691 384.043 983.908 262.519 739.835C140.994 495.762 291.656 725.597 533.35 575.534C775.045 425.472 522.656 332.612 465.863 304.53Z" stroke="#D9DBE9" stroke-width="1.27863" stroke-miterlimit="10"/>
<path d="M468.052 309.931C410.109 281.267 630.903 452.844 534.074 698.192C437.245 943.541 723.858 647.415 673.916 532.175C623.973 416.934 380.2 984.6 261.007 745.221C141.813 505.841 284.773 732.353 530.562 582.18C776.352 432.007 526.011 338.58 468.052 309.931Z" stroke="#D9DBE9" stroke-width="1.27863" stroke-miterlimit="10"/>
<path d="M470.257 315.318C411.148 286.086 639.062 465.79 534.484 707.862C429.906 949.935 721.117 651.699 669.978 536.931C618.839 422.163 376.357 985.309 259.51 750.623C142.663 515.937 277.906 739.141 527.774 588.842C777.643 438.543 529.365 344.549 470.257 315.318Z" stroke="#D9DBE9" stroke-width="1.27863" stroke-miterlimit="10"/>
<path d="M472.463 320.705C412.204 290.89 647.221 478.737 534.894 717.533C422.568 956.33 718.378 655.984 666.026 541.688C613.674 427.393 372.531 986.002 258.031 756.01C143.531 526.017 271.056 745.898 525.019 595.489C778.983 445.08 532.721 350.519 472.463 320.705Z" stroke="#D9DBE9" stroke-width="1.27863" stroke-miterlimit="10"/>
<path d="M474.667 326.09C413.243 295.709 655.395 491.682 535.319 727.203C415.244 962.723 715.653 660.266 662.104 546.444C608.555 432.621 368.719 986.694 256.534 761.395C144.349 536.096 264.173 752.654 522.247 602.134C780.321 451.615 536.091 356.471 474.667 326.09Z" stroke="#D9DBE9" stroke-width="1.27863" stroke-miterlimit="10"/>
<path d="M476.888 330.263C414.299 299.315 663.569 503.415 535.744 735.66C407.92 967.905 712.944 663.353 658.182 550.003C603.421 436.652 364.892 986.19 255.054 765.584C145.216 544.979 257.322 758.213 519.491 607.584C781.66 456.954 539.477 361.227 476.888 330.263Z" stroke="#D9DBE9" stroke-width="1.27863" stroke-miterlimit="10"/>
<path d="M479.108 333.823C415.369 302.292 671.742 514.535 536.169 743.504C400.596 972.473 710.219 665.811 654.245 552.933C598.27 440.055 361.08 985.056 253.573 769.144C146.066 553.232 250.47 763.144 516.718 612.388C782.967 461.632 542.847 365.354 479.108 333.823Z" stroke="#D9DBE9" stroke-width="1.27863" stroke-miterlimit="10"/>
<path d="M481.345 337.367C416.44 305.269 679.948 525.638 536.61 751.331C393.273 977.024 707.51 668.251 650.339 555.846C593.168 443.441 357.285 983.906 252.124 772.687C146.964 561.469 243.651 768.057 513.994 617.191C784.337 466.325 546.249 369.48 481.345 337.367Z" stroke="#D9DBE9" stroke-width="1.27863" stroke-miterlimit="10"/>
<path d="M483.581 340.911C417.527 308.23 688.138 536.742 537.051 759.159C385.965 981.576 704.801 670.693 646.417 558.76C588.033 446.828 353.473 982.757 250.643 776.232C147.814 569.706 236.799 772.972 511.237 621.995C785.675 471.019 549.635 373.576 483.581 340.911Z" stroke="#D9DBE9" stroke-width="1.27863" stroke-miterlimit="10"/>
<path d="M485.833 344.423C418.614 311.175 696.359 547.83 537.524 766.955C378.689 986.08 702.124 673.103 642.543 561.642C582.962 450.182 349.709 981.576 249.21 779.744C148.712 577.912 229.98 777.869 508.529 626.767C787.077 475.665 553.053 377.67 485.833 344.423Z" stroke="#D9DBE9" stroke-width="1.27863" stroke-miterlimit="10"/>
<path d="M488.086 347.92C419.7 314.106 704.565 558.887 537.981 774.736C371.396 990.586 699.43 675.498 638.652 564.51C577.874 453.522 345.929 980.38 247.777 783.257C149.625 586.134 223.176 782.753 505.804 631.54C788.432 480.328 556.471 381.75 488.086 347.92Z" stroke="#D9DBE9" stroke-width="1.27863" stroke-miterlimit="10"/>
<path d="M489.897 351.416C420.362 317.018 712.329 569.942 537.996 782.516C363.663 995.089 696.296 677.891 634.306 567.375C572.315 456.86 341.708 979.182 245.887 786.737C150.066 594.291 215.915 787.603 502.638 636.28C789.361 484.957 559.432 385.813 489.897 351.416Z" stroke="#D9DBE9" stroke-width="1.27863" stroke-miterlimit="10"/>
<path d="M489.882 354.896C419.181 319.931 718.283 580.982 536.186 790.28C354.088 999.577 691.336 680.268 628.148 570.225C564.96 460.182 335.645 977.968 242.171 790.217C148.696 602.465 206.828 792.453 497.646 641.02C788.464 489.587 560.566 389.86 489.882 354.896Z" stroke="#D9DBE9" stroke-width="1.27863" stroke-miterlimit="10"/>
<path d="M489.849 358.345C417.999 322.798 724.204 591.992 534.358 798.013C344.511 1004.03 686.358 682.615 621.973 573.045C557.589 463.474 329.596 976.74 238.453 793.682C147.31 610.623 197.724 797.289 492.653 645.729C787.581 494.17 561.699 393.892 489.849 358.345Z" stroke="#D9DBE9" stroke-width="1.27863" stroke-miterlimit="10"/>
<path d="M489.818 361.795C416.802 325.681 730.126 603.017 532.547 805.762C334.967 1008.51 681.397 684.978 615.8 575.88C550.202 466.782 323.533 975.497 234.721 797.132C145.908 618.766 188.621 802.108 487.629 650.439C786.636 498.77 562.833 397.909 489.818 361.795Z" stroke="#D9DBE9" stroke-width="1.27863" stroke-miterlimit="10"/>
<path d="M489.787 365.228C415.621 328.547 736.064 613.994 530.72 813.464C325.376 1012.93 676.42 687.293 609.626 578.668C542.832 470.042 317.47 974.221 231.004 800.549C144.538 626.877 179.534 806.896 482.636 655.116C785.739 503.337 563.952 401.925 489.787 365.228Z" stroke="#D9DBE9" stroke-width="1.27863" stroke-miterlimit="10"/>
<path d="M489.756 368.646C414.425 331.382 741.987 624.972 528.893 821.165C315.8 1017.36 671.444 689.608 603.437 581.455C535.43 473.302 311.39 972.961 227.256 803.982C143.121 635.004 170.415 811.7 477.613 659.81C784.81 507.92 565.086 405.909 489.756 368.646Z" stroke="#D9DBE9" stroke-width="1.27863" stroke-miterlimit="10"/>
<path d="M489.708 372.048C413.212 334.217 747.908 635.949 527.051 828.851C306.193 1021.75 666.467 691.908 597.247 584.227C528.027 476.547 305.327 971.669 223.523 807.4C141.719 643.131 161.296 816.504 472.604 664.488C783.912 512.472 566.204 409.894 489.708 372.048Z" stroke="#D9DBE9" stroke-width="1.27863" stroke-miterlimit="10"/>
<path d="M489.676 375.435C412.031 337.021 753.83 646.896 525.223 836.522C296.617 1026.15 661.49 694.192 591.073 586.984C520.656 479.776 299.263 970.379 219.806 810.787C140.349 651.196 152.208 821.261 467.595 669.135C782.983 517.008 567.322 413.848 489.676 375.435Z" stroke="#D9DBE9" stroke-width="1.27863" stroke-miterlimit="10"/>
<path d="M489.645 378.821C410.834 339.84 759.752 657.842 523.397 844.192C287.041 1030.54 656.513 696.476 584.883 589.74C513.254 483.005 293.184 969.055 216.073 814.157C138.963 659.259 143.105 826.001 462.587 673.765C782.069 521.528 568.456 417.801 489.645 378.821Z" stroke="#D9DBE9" stroke-width="1.27863" stroke-miterlimit="10"/>
<path d="M489.613 382.174C409.652 342.627 765.689 668.755 521.585 851.829C277.48 1034.9 651.551 698.727 578.724 592.479C505.898 486.232 287.119 967.715 212.34 817.511C137.56 667.306 134.001 830.725 457.578 678.362C781.155 526 569.574 421.721 489.613 382.174Z" stroke="#D9DBE9" stroke-width="1.27863" stroke-miterlimit="10"/>
<path d="M489.582 385.514C408.455 345.383 771.611 679.655 519.758 859.453C267.905 1039.25 646.575 700.98 572.551 595.189C498.528 489.398 281.056 966.377 208.608 820.866C136.159 675.355 124.898 835.45 452.57 682.978C780.242 530.505 570.708 425.644 489.582 385.514Z" stroke="#D9DBE9" stroke-width="1.27863" stroke-miterlimit="10"/>
<path d="M489.566 388.837C407.274 348.14 777.565 690.537 517.947 867.06C258.33 1043.58 641.614 703.184 566.377 597.882C491.141 492.58 275.009 965.007 204.891 824.189C134.773 683.371 115.795 840.144 447.562 687.561C779.329 534.978 571.843 429.55 489.566 388.837Z" stroke="#D9DBE9" stroke-width="1.27863" stroke-miterlimit="10"/>
<path d="M489.534 392.16C406.093 350.88 783.486 701.42 516.12 874.667C248.753 1047.91 636.652 705.405 560.219 600.575C483.786 495.745 268.96 963.621 201.174 827.512C133.387 691.403 106.707 844.837 442.569 692.144C778.431 539.451 572.992 433.424 489.534 392.16Z" stroke="#D9DBE9" stroke-width="1.27863" stroke-miterlimit="10"/>
<path d="M489.535 395.451C404.927 353.605 789.44 712.272 514.325 882.242C239.209 1052.21 631.691 707.594 554.045 603.237C476.399 498.88 262.913 962.235 197.473 830.804C132.033 699.373 97.6356 849.515 437.592 696.696C777.549 543.876 574.126 437.298 489.535 395.451Z" stroke="#D9DBE9" stroke-width="1.27863" stroke-miterlimit="10"/>
<path d="M489.519 398.727C403.762 356.313 795.393 723.123 512.529 889.802C229.665 1056.48 626.746 709.767 547.903 605.882C469.06 501.998 256.865 960.817 193.771 834.095C130.678 707.373 88.5636 854.176 432.615 701.247C776.667 548.317 575.291 441.157 489.519 398.727Z" stroke="#D9DBE9" stroke-width="1.27863" stroke-miterlimit="10"/>
<path d="M489.535 402.003C402.612 359.007 801.363 733.959 510.75 897.362C220.137 1060.76 621.816 711.941 541.776 608.529C461.737 505.116 250.848 959.4 190.086 837.356C129.324 715.311 79.492 858.807 427.639 705.767C775.785 552.728 576.442 445 489.535 402.003Z" stroke="#D9DBE9" stroke-width="1.27863" stroke-miterlimit="10"/>
<path d="M489.535 405.248C401.463 361.685 807.332 744.764 508.955 904.891C210.577 1065.02 616.871 714.084 535.619 611.144C454.366 508.204 244.801 957.952 186.386 840.601C127.97 723.25 70.4208 863.422 422.662 710.257C774.904 557.091 577.623 448.812 489.535 405.248Z" stroke="#D9DBE9" stroke-width="1.27863" stroke-miterlimit="10"/>
<path d="M489.566 408.492C400.329 364.346 813.317 755.568 507.19 912.419C201.064 1069.27 611.957 716.225 529.507 613.758C447.058 511.29 238.8 956.502 182.715 843.845C126.631 731.187 61.3799 868.036 417.716 714.76C774.053 561.484 578.804 452.623 489.566 408.492Z" stroke="#D9DBE9" stroke-width="1.27863" stroke-miterlimit="10"/>
<path d="M489.157 411.705C398.754 366.991 818.86 766.34 504.985 919.915C191.11 1073.49 606.618 718.335 522.956 616.34C439.293 514.345 232.374 955.021 178.62 847.073C124.867 739.125 51.9143 872.635 412.346 719.249C772.777 565.862 579.56 456.418 489.157 411.705Z" stroke="#D9DBE9" stroke-width="1.27863" stroke-miterlimit="10"/>
<path d="M487.913 414.902C396.36 369.622 823.585 777.097 501.961 927.396C180.337 1077.7 600.444 720.446 515.569 618.907C430.694 517.369 225.082 953.541 173.675 850.286C122.268 747.031 41.5827 877.218 406.109 723.722C770.635 570.225 579.465 460.198 487.913 414.902Z" stroke="#D9DBE9" stroke-width="1.27863" stroke-miterlimit="10"/>
<path d="M486.684 418.1C393.966 372.237 828.31 787.855 498.937 934.878C169.564 1081.9 594.27 722.541 508.198 621.475C422.126 520.41 217.837 952.029 168.761 853.468C119.685 754.907 31.2981 881.786 399.903 728.164C768.509 574.541 579.403 463.947 486.684 418.1Z" stroke="#D9DBE9" stroke-width="1.27863" stroke-miterlimit="10"/>
<path d="M485.471 421.265C391.603 374.835 833.05 798.58 495.929 942.327C158.807 1086.07 588.112 724.604 500.843 624.011C413.574 523.418 210.592 950.502 163.847 856.633C117.102 762.765 21.0131 886.322 393.729 732.589C766.445 578.857 579.355 467.695 485.471 421.265Z" stroke="#D9DBE9" stroke-width="1.27863" stroke-miterlimit="10"/>
<path d="M484.289 424.416C389.256 377.403 837.838 809.306 492.952 949.762C148.065 1090.22 581.985 726.652 493.503 626.531C405.021 526.411 203.362 948.974 158.964 859.8C114.566 770.625 10.7597 890.858 387.571 737.015C764.382 583.172 579.323 471.428 484.289 424.416Z" stroke="#D9DBE9" stroke-width="1.27863" stroke-miterlimit="10"/>
<path d="M483.124 427.565C386.925 379.985 842.626 820.015 489.991 957.195C137.356 1094.37 575.874 728.699 486.195 629.051C396.517 529.402 196.165 947.415 154.098 862.933C112.03 778.452 0.522546 895.362 381.413 741.393C762.303 587.424 579.307 475.145 483.124 427.565Z" stroke="#D9DBE9" stroke-width="1.27863" stroke-miterlimit="10"/>
<path d="M481.975 430.684C384.626 382.537 847.43 830.694 487.046 964.598C126.662 1098.5 569.779 730.715 478.888 631.555C387.997 532.395 188.968 945.855 149.247 866.068C109.511 786.28 -9.71417 899.866 375.287 745.787C760.287 591.708 579.324 478.83 481.975 430.684Z" stroke="#D9DBE9" stroke-width="1.27863" stroke-miterlimit="10"/>
<path d="M480.84 433.787C382.326 385.057 852.265 841.357 484.132 971.985C115.999 1102.61 563.715 732.716 471.627 634.028C379.538 535.341 181.817 944.281 144.427 869.171C107.037 794.076 -19.9049 904.34 369.191 750.15C758.287 595.961 579.354 482.516 480.84 433.787Z" stroke="#D9DBE9" stroke-width="1.27863" stroke-miterlimit="10"/>
<path d="M479.739 436.89C380.075 387.594 857.117 852.02 481.235 979.372C105.353 1106.72 557.668 734.716 464.383 636.501C371.098 538.287 174.683 942.675 139.625 872.274C104.566 801.873 -30.0781 908.813 363.113 754.514C756.303 600.214 579.403 486.187 479.739 436.89Z" stroke="#D9DBE9" stroke-width="1.27863" stroke-miterlimit="10"/>
<path d="M478.652 439.961C377.823 390.081 861.999 862.65 478.353 986.726C94.7068 1110.8 551.636 736.684 457.138 638.942C362.64 541.199 167.565 941.068 134.853 875.344C102.141 809.621 -40.2207 913.254 357.049 758.844C754.319 604.434 579.482 489.824 478.652 439.961Z" stroke="#D9DBE9" stroke-width="1.27863" stroke-miterlimit="10"/>
<path d="M477.581 443.015C375.586 392.569 866.881 873.265 475.486 994.065C84.0911 1114.86 545.62 738.637 449.925 641.367C354.229 544.097 160.461 939.429 130.08 878.415C99.699 817.401 -50.3796 917.711 351.001 763.175C752.381 608.639 579.576 493.462 477.581 443.015Z" stroke="#D9DBE9" stroke-width="1.27863" stroke-miterlimit="10"/>
<path d="M476.542 446.055C373.397 395.042 871.795 883.864 472.652 1001.39C73.5076 1118.91 539.651 740.574 442.743 643.776C345.835 546.979 153.374 937.775 125.34 881.454C97.2896 825.134 -60.4906 922.12 344.985 767.474C750.46 612.828 579.686 497.084 476.542 446.055Z" stroke="#D9DBE9" stroke-width="1.27863" stroke-miterlimit="10"/>
<path d="M475.502 449.079C371.192 397.483 876.725 894.464 469.832 1008.7C62.9392 1122.93 533.681 742.495 435.561 646.17C337.44 549.845 146.318 936.106 120.615 884.478C94.9111 832.851 -70.5864 926.514 338.984 771.742C748.554 616.97 579.812 500.675 475.502 449.079Z" stroke="#D9DBE9" stroke-width="1.27863" stroke-miterlimit="10"/>
<path d="M474.494 452.088C369.034 399.925 881.67 905.033 467.028 1015.99C52.3867 1126.95 527.728 744.402 428.41 648.55C329.093 552.697 139.278 934.438 115.905 887.488C92.5326 840.554 -80.6666 930.894 332.983 776.012C746.632 621.129 579.954 504.251 474.494 452.088Z" stroke="#D9DBE9" stroke-width="1.27863" stroke-miterlimit="10"/>
<path d="M473.501 455.08C366.876 402.335 886.631 915.585 464.241 1023.27C41.8501 1130.95 521.79 746.292 421.26 650.912C320.73 555.532 132.253 932.736 111.212 890.496C90.1859 848.239 -90.7306 935.272 327.014 780.28C744.758 625.287 580.127 507.826 473.501 455.08Z" stroke="#D9DBE9" stroke-width="1.27863" stroke-miterlimit="10"/>
<path d="M472.525 458.057C364.75 404.744 891.624 926.121 461.469 1030.53C31.3135 1134.93 515.868 748.166 414.141 653.258C312.414 558.351 125.245 931.02 106.55 893.472C87.8549 855.925 -100.779 939.619 321.076 784.516C742.931 629.413 580.316 511.37 472.525 458.057Z" stroke="#D9DBE9" stroke-width="1.27863" stroke-miterlimit="10"/>
<path d="M471.565 461.018C362.625 407.138 896.617 936.642 458.713 1037.77C20.8094 1138.9 509.963 750.024 407.039 655.589C304.114 561.154 118.253 929.287 101.889 896.433C85.5248 863.58 -110.811 943.95 315.139 788.737C741.089 633.524 580.505 514.913 471.565 461.018Z" stroke="#D9DBE9" stroke-width="1.27863" stroke-miterlimit="10"/>
<path d="M470.635 463.964C360.529 409.501 901.656 947.148 456.004 1045C10.3509 1142.85 504.103 751.868 399.966 657.905C295.83 563.943 111.275 927.54 97.2576 899.379C83.2404 871.219 -120.812 948.282 309.217 792.943C739.246 637.604 580.725 518.426 470.635 463.964Z" stroke="#D9DBE9" stroke-width="1.27863" stroke-miterlimit="10"/>
<path d="M469.707 466.893C358.451 411.863 906.681 957.637 453.28 1052.21C-0.121909 1146.79 498.229 753.694 392.895 660.204C287.562 566.714 104.314 925.775 92.6279 902.308C80.9417 878.841 -130.813 952.581 303.311 797.132C737.435 641.683 580.962 521.922 469.707 466.893Z" stroke="#D9DBE9" stroke-width="1.27863" stroke-miterlimit="10"/>
<path d="M468.792 469.791C356.371 414.179 911.72 968.095 450.569 1059.4C-10.581 1150.7 492.369 755.49 385.838 662.472C279.308 569.455 97.3673 923.996 88.0277 905.206C78.6724 886.433 -140.799 956.85 297.435 801.274C735.67 645.699 581.213 525.403 468.792 469.791Z" stroke="#D9DBE9" stroke-width="1.27863" stroke-miterlimit="10"/>
<path d="M467.895 472.688C354.324 416.509 916.792 978.567 447.877 1066.58C-21.0381 1154.59 486.527 757.285 378.783 664.755C271.04 572.226 90.4538 922.184 83.4295 908.103C76.4051 894.023 -150.768 961.117 291.561 805.431C733.891 649.746 581.481 528.867 467.895 472.688Z" stroke="#D9DBE9" stroke-width="1.27863" stroke-miterlimit="10"/>
<path d="M467.029 475.571C352.292 418.824 921.879 989.01 445.215 1073.74C-31.4484 1158.48 480.715 759.065 371.775 667.008C262.834 574.951 83.5399 920.373 78.8623 910.986C74.1846 901.599 -160.706 965.37 285.703 809.574C732.111 653.778 581.765 532.317 467.029 475.571Z" stroke="#D9DBE9" stroke-width="1.27863" stroke-miterlimit="10"/>
<path d="M466.162 478.421C350.26 421.092 926.966 999.42 442.553 1080.88C-41.8599 1162.33 474.903 760.813 364.749 669.228C254.596 577.644 76.6407 918.546 74.294 913.852C71.963 909.159 -170.645 969.606 279.859 813.7C730.362 657.794 582.048 535.75 466.162 478.421Z" stroke="#D9DBE9" stroke-width="1.27863" stroke-miterlimit="10"/>
<path d="M69.7585 916.687C69.7585 916.687 -180.567 973.811 274.048 817.795C728.662 661.779 582.363 539.167 465.312 481.272C348.26 423.376 932.085 1009.83 439.923 1088.01C-52.2384 1166.19 469.139 762.561 357.773 671.449C246.407 580.337 69.7585 916.687 69.7585 916.687Z" stroke="#D9DBE9" stroke-width="1.27863" stroke-miterlimit="10"/>
</svg>
