<svg width="322" height="54" viewBox="0 0 322 54" fill="none" xmlns="http://www.w3.org/2000/svg">
<path d="M136.167 26.0646H133.755V9.82634H136.167V26.0646Z" fill="white"/>
<path d="M141.597 16.1701C141.845 15.9063 142.104 15.665 142.375 15.4464C142.645 15.2278 142.931 15.0431 143.231 14.8923C143.539 14.734 143.866 14.6134 144.212 14.5305C144.565 14.44 144.941 14.3948 145.339 14.3948C145.97 14.3948 146.523 14.5003 146.996 14.7114C147.477 14.9225 147.879 15.2202 148.202 15.6047C148.525 15.9816 148.769 16.4377 148.935 16.973C149.1 17.5082 149.183 18.1 149.183 18.7483V26.0646H146.973V18.7483C146.973 17.9266 146.786 17.2896 146.41 16.8373C146.034 16.3774 145.459 16.1475 144.685 16.1475C144.122 16.1475 143.592 16.2832 143.096 16.5546C142.608 16.8184 142.153 17.1803 141.732 17.6402V26.0646H139.534V14.5757H140.853C141.161 14.5757 141.353 14.7227 141.428 15.0167L141.597 16.1701Z" fill="white"/>
<path d="M152.728 26.0646V16.385L151.533 16.238C151.36 16.2003 151.217 16.14 151.105 16.057C150.999 15.9666 150.947 15.8384 150.947 15.6726V14.7566H152.728V13.7163C152.728 13.0604 152.822 12.4762 153.009 11.9635C153.197 11.4509 153.464 11.0174 153.81 10.6631C154.163 10.3013 154.584 10.0299 155.072 9.84896C155.568 9.66049 156.124 9.56626 156.74 9.56626C157.259 9.56626 157.736 9.64165 158.172 9.79242L158.127 10.9006C158.119 10.9986 158.089 11.074 158.037 11.1268C157.984 11.172 157.913 11.2059 157.822 11.2285C157.74 11.2511 157.635 11.2662 157.507 11.2738C157.387 11.2738 157.255 11.2738 157.112 11.2738C156.774 11.2738 156.466 11.3152 156.188 11.3982C155.91 11.4811 155.673 11.6205 155.478 11.8165C155.283 12.0125 155.132 12.2726 155.027 12.5968C154.922 12.9134 154.869 13.3092 154.869 13.7841V14.7566H158.082V16.3623H154.937V26.0646H152.728Z" fill="white"/>
<path d="M164.448 14.3948C165.29 14.3948 166.049 14.5342 166.725 14.8132C167.409 15.0845 167.987 15.4803 168.461 16.0005C168.942 16.5131 169.31 17.1351 169.565 17.8663C169.821 18.59 169.949 19.4042 169.949 20.3088C169.949 21.2135 169.821 22.0314 169.565 22.7627C169.31 23.4939 168.942 24.1158 168.461 24.6285C167.987 25.1411 167.409 25.5369 166.725 25.8158C166.049 26.0872 165.29 26.2229 164.448 26.2229C163.599 26.2229 162.833 26.0872 162.149 25.8158C161.472 25.5369 160.894 25.1411 160.413 24.6285C159.932 24.1158 159.56 23.4939 159.297 22.7627C159.042 22.0314 158.914 21.2135 158.914 20.3088C158.914 19.4042 159.042 18.59 159.297 17.8663C159.56 17.1351 159.932 16.5131 160.413 16.0005C160.894 15.4803 161.472 15.0845 162.149 14.8132C162.833 14.5342 163.599 14.3948 164.448 14.3948ZM164.448 24.5041C165.53 24.5041 166.338 24.1385 166.872 23.4072C167.405 22.676 167.672 21.6469 167.672 20.3201C167.672 18.9933 167.405 17.9643 166.872 17.2331C166.338 16.4943 165.53 16.1249 164.448 16.1249C163.351 16.1249 162.532 16.4943 161.991 17.2331C161.457 17.9643 161.191 18.9933 161.191 20.3201C161.191 21.6469 161.457 22.676 161.991 23.4072C162.532 24.1385 163.351 24.5041 164.448 24.5041Z" fill="white"/>
<path d="M174.476 16.7807C174.844 16.0269 175.288 15.4351 175.806 15.0054C176.325 14.5757 176.948 14.3608 177.677 14.3608C177.925 14.3608 178.158 14.391 178.376 14.4513C178.602 14.5041 178.797 14.587 178.962 14.7001L178.816 16.3623C178.763 16.5659 178.639 16.6677 178.444 16.6677C178.339 16.6677 178.181 16.6488 177.97 16.6111C177.76 16.5659 177.534 16.5433 177.294 16.5433C176.941 16.5433 176.629 16.596 176.358 16.7016C176.088 16.7996 175.844 16.9504 175.626 17.1539C175.415 17.3499 175.228 17.5949 175.062 17.8889C174.897 18.1754 174.743 18.5033 174.6 18.8727V26.0646H172.402V14.5757H173.665C173.905 14.5757 174.067 14.6209 174.149 14.7114C174.239 14.7943 174.303 14.9451 174.341 15.1637L174.476 16.7807Z" fill="white"/>
<path d="M180.658 26.0646V14.5757H181.976C182.285 14.5757 182.476 14.7227 182.551 15.0167L182.709 16.1136C183.13 15.6085 183.596 15.1976 184.107 14.881C184.625 14.5568 185.23 14.3948 185.922 14.3948C186.68 14.3948 187.297 14.6058 187.77 15.028C188.243 15.4426 188.589 16.008 188.807 16.7242C188.972 16.3171 189.187 15.9666 189.45 15.6726C189.713 15.3786 190.006 15.1373 190.329 14.9489C190.652 14.7604 190.994 14.6209 191.354 14.5305C191.723 14.44 192.095 14.3948 192.47 14.3948C193.079 14.3948 193.62 14.4928 194.093 14.6888C194.574 14.8772 194.98 15.1562 195.311 15.5256C195.641 15.895 195.893 16.351 196.066 16.8938C196.239 17.4366 196.325 18.0548 196.325 18.7483V26.0646H194.116V18.7483C194.116 17.8889 193.928 17.2406 193.552 16.8034C193.184 16.3661 192.643 16.1475 191.929 16.1475C191.614 16.1475 191.313 16.204 191.028 16.3171C190.742 16.4227 190.49 16.5847 190.272 16.8034C190.062 17.022 189.893 17.2934 189.765 17.6175C189.645 17.9417 189.585 18.3186 189.585 18.7483V26.0646H187.376V18.7483C187.376 17.8588 187.199 17.2029 186.846 16.7807C186.493 16.3586 185.974 16.1475 185.29 16.1475C184.817 16.1475 184.377 16.2719 183.972 16.5207C183.566 16.7694 183.194 17.1087 182.856 17.5384V26.0646H180.658Z" fill="white"/>
<path d="M205.436 20.9647C204.542 20.9948 203.783 21.0665 203.16 21.1795C202.536 21.2851 202.029 21.4283 201.638 21.6092C201.247 21.7902 200.965 22.005 200.793 22.2538C200.62 22.495 200.533 22.7664 200.533 23.068C200.533 23.3544 200.578 23.6032 200.669 23.8143C200.766 24.0178 200.894 24.1875 201.052 24.3232C201.217 24.4513 201.409 24.5456 201.627 24.6059C201.845 24.6662 202.081 24.6963 202.337 24.6963C202.675 24.6963 202.983 24.6624 203.261 24.5946C203.547 24.5267 203.813 24.4325 204.061 24.3119C204.309 24.1837 204.546 24.0292 204.771 23.8482C204.997 23.6673 205.219 23.46 205.436 23.2263V20.9647ZM198.989 16.1814C199.628 15.5708 200.319 15.1147 201.063 14.8132C201.815 14.5116 202.637 14.3608 203.532 14.3608C204.185 14.3608 204.764 14.4701 205.267 14.6888C205.771 14.8999 206.195 15.1976 206.541 15.5821C206.887 15.9666 207.146 16.4264 207.319 16.9617C207.499 17.4969 207.589 18.0887 207.589 18.737V26.0646H206.609C206.391 26.0646 206.225 26.0307 206.113 25.9628C206 25.8874 205.91 25.7517 205.842 25.5557L205.605 24.5493C205.312 24.8207 205.023 25.0619 204.738 25.273C204.452 25.4766 204.151 25.6537 203.836 25.8045C203.528 25.9477 203.197 26.057 202.844 26.1324C202.491 26.2078 202.1 26.2455 201.672 26.2455C201.221 26.2455 200.796 26.1852 200.398 26.0646C200.007 25.9364 199.665 25.7442 199.372 25.4879C199.079 25.2316 198.846 24.9112 198.674 24.5267C198.508 24.1422 198.426 23.6937 198.426 23.1811C198.426 22.7287 198.546 22.2953 198.786 21.8806C199.034 21.4585 199.432 21.0815 199.981 20.7498C200.537 20.4181 201.258 20.1468 202.145 19.9357C203.039 19.7246 204.136 19.604 205.436 19.5738V18.737C205.436 17.8701 205.252 17.2218 204.884 16.7921C204.516 16.3623 203.975 16.1475 203.261 16.1475C202.78 16.1475 202.374 16.2078 202.044 16.3284C201.721 16.449 201.439 16.5847 201.198 16.7355C200.965 16.8787 200.759 17.0107 200.578 17.1313C200.406 17.2519 200.225 17.3122 200.037 17.3122C199.887 17.3122 199.756 17.2708 199.643 17.1878C199.538 17.1049 199.451 17.0069 199.384 16.8938L198.989 16.1814ZM206.721 9.64542L204.05 12.5629C203.937 12.691 203.828 12.7815 203.723 12.8343C203.618 12.8795 203.479 12.9021 203.306 12.9021H201.976L203.644 10.1656C203.749 9.99219 203.862 9.86404 203.982 9.78111C204.11 9.69065 204.306 9.64542 204.569 9.64542H206.721Z" fill="white"/>
<path d="M221.232 26.0646H219.023V16.3623H213.274V23.0906C213.274 23.5429 213.383 23.8822 213.601 24.1083C213.827 24.3269 214.112 24.4362 214.458 24.4362C214.661 24.4362 214.834 24.4099 214.976 24.3571C215.127 24.3043 215.254 24.2478 215.36 24.1875C215.465 24.1196 215.555 24.0593 215.63 24.0065C215.705 23.9538 215.773 23.9274 215.833 23.9274C215.908 23.9274 215.965 23.9462 216.002 23.9839C216.047 24.0141 216.092 24.0668 216.137 24.1422L216.791 25.2052C216.43 25.5369 216.002 25.7932 215.506 25.9741C215.01 26.1551 214.495 26.2455 213.962 26.2455C213.038 26.2455 212.324 25.9854 211.82 25.4653C211.324 24.9451 211.076 24.2025 211.076 23.2376V16.3623H209.746C209.619 16.3623 209.51 16.3247 209.42 16.2493C209.337 16.1663 209.296 16.0457 209.296 15.8874V14.9941L211.167 14.734L211.651 11.3077C211.681 11.1795 211.738 11.0815 211.82 11.0137C211.911 10.9383 212.023 10.9006 212.158 10.9006H213.274V14.7566H221.232V26.0646ZM221.728 10.9571C221.728 11.1607 221.687 11.3567 221.604 11.5452C221.521 11.7261 221.409 11.8882 221.266 12.0314C221.131 12.1671 220.969 12.2764 220.781 12.3593C220.593 12.4347 220.398 12.4724 220.195 12.4724C219.992 12.4724 219.801 12.4347 219.62 12.3593C219.44 12.2764 219.278 12.1671 219.136 12.0314C219 11.8882 218.891 11.7261 218.809 11.5452C218.734 11.3567 218.696 11.1607 218.696 10.9571C218.696 10.7461 218.734 10.5463 218.809 10.3578C218.891 10.1694 219 10.0073 219.136 9.87157C219.278 9.72834 219.44 9.61903 219.62 9.54364C219.801 9.46072 219.992 9.41925 220.195 9.41925C220.398 9.41925 220.593 9.46072 220.781 9.54364C220.969 9.61903 221.131 9.72834 221.266 9.87157C221.409 10.0073 221.521 10.1694 221.604 10.3578C221.687 10.5463 221.728 10.7461 221.728 10.9571Z" fill="white"/>
<path d="M232.448 16.7242C232.381 16.8071 232.313 16.875 232.245 16.9277C232.185 16.973 232.095 16.9956 231.975 16.9956C231.855 16.9956 231.727 16.9504 231.592 16.8599C231.464 16.7619 231.299 16.6601 231.096 16.5546C230.9 16.4415 230.66 16.3397 230.374 16.2493C230.096 16.1513 229.751 16.1023 229.337 16.1023C228.796 16.1023 228.319 16.2003 227.906 16.3963C227.493 16.5923 227.147 16.8712 226.869 17.2331C226.598 17.5949 226.392 18.0359 226.249 18.5561C226.106 19.0763 226.035 19.6605 226.035 20.3088C226.035 20.9798 226.11 21.5791 226.26 22.1068C226.411 22.627 226.625 23.068 226.903 23.4298C227.181 23.7841 227.519 24.0555 227.917 24.244C228.315 24.4249 228.759 24.5154 229.247 24.5154C229.721 24.5154 230.111 24.4589 230.419 24.3458C230.728 24.2252 230.983 24.097 231.186 23.9613C231.389 23.8256 231.558 23.7012 231.693 23.5881C231.828 23.4675 231.967 23.4072 232.11 23.4072C232.291 23.4072 232.43 23.4751 232.527 23.6108L233.158 24.4249C232.895 24.7491 232.599 25.0243 232.268 25.2504C231.945 25.4766 231.599 25.6613 231.231 25.8045C230.863 25.9477 230.476 26.0533 230.07 26.1211C229.672 26.189 229.266 26.2229 228.853 26.2229C228.139 26.2229 227.47 26.091 226.846 25.8271C226.23 25.5633 225.693 25.1788 225.235 24.6737C224.784 24.1686 224.427 23.5504 224.164 22.8192C223.901 22.0804 223.769 21.2436 223.769 20.3088C223.769 19.457 223.886 18.6692 224.119 17.9455C224.359 17.2218 224.709 16.5998 225.167 16.0797C225.633 15.5519 226.204 15.1411 226.88 14.8471C227.556 14.5455 228.33 14.3948 229.202 14.3948C230.021 14.3948 230.743 14.5267 231.366 14.7905C231.99 15.0544 232.546 15.4276 233.034 15.91L232.448 16.7242Z" fill="white"/>
<path d="M241.364 20.9647C240.47 20.9948 239.711 21.0665 239.088 21.1795C238.464 21.2851 237.957 21.4283 237.566 21.6092C237.175 21.7902 236.893 22.005 236.721 22.2538C236.548 22.495 236.461 22.7664 236.461 23.068C236.461 23.3544 236.506 23.6032 236.597 23.8143C236.694 24.0178 236.822 24.1875 236.98 24.3232C237.145 24.4513 237.337 24.5456 237.555 24.6059C237.773 24.6662 238.009 24.6963 238.265 24.6963C238.603 24.6963 238.911 24.6624 239.189 24.5946C239.475 24.5267 239.741 24.4325 239.989 24.3119C240.237 24.1837 240.474 24.0292 240.699 23.8482C240.925 23.6673 241.147 23.46 241.364 23.2263V20.9647ZM234.917 16.1814C235.556 15.5708 236.247 15.1147 236.991 14.8132C237.743 14.5116 238.565 14.3608 239.46 14.3608C240.113 14.3608 240.692 14.4701 241.195 14.6888C241.699 14.8999 242.123 15.1976 242.469 15.5821C242.815 15.9666 243.074 16.4264 243.247 16.9617C243.427 17.4969 243.517 18.0887 243.517 18.737V26.0646H242.537C242.319 26.0646 242.153 26.0307 242.041 25.9628C241.928 25.8874 241.838 25.7517 241.77 25.5557L241.534 24.5493C241.24 24.8207 240.951 25.0619 240.666 25.273C240.38 25.4766 240.08 25.6537 239.764 25.8045C239.456 25.9477 239.125 26.057 238.772 26.1324C238.419 26.2078 238.028 26.2455 237.6 26.2455C237.149 26.2455 236.724 26.1852 236.326 26.0646C235.935 25.9364 235.593 25.7442 235.3 25.4879C235.007 25.2316 234.774 24.9112 234.602 24.5267C234.436 24.1422 234.354 23.6937 234.354 23.1811C234.354 22.7287 234.474 22.2953 234.714 21.8806C234.962 21.4585 235.36 21.0815 235.909 20.7498C236.465 20.4181 237.186 20.1468 238.073 19.9357C238.967 19.7246 240.064 19.604 241.364 19.5738V18.737C241.364 17.8701 241.18 17.2218 240.812 16.7921C240.444 16.3623 239.903 16.1475 239.189 16.1475C238.708 16.1475 238.302 16.2078 237.972 16.3284C237.649 16.449 237.367 16.5847 237.126 16.7355C236.893 16.8787 236.687 17.0107 236.506 17.1313C236.334 17.2519 236.153 17.3122 235.965 17.3122C235.815 17.3122 235.684 17.2708 235.571 17.1878C235.466 17.1049 235.379 17.0069 235.312 16.8938L234.917 16.1814Z" fill="white"/>
<path d="M269.632 9.82634V26.0646H267.536V14.5078C267.536 14.3345 267.54 14.1498 267.547 13.9538C267.562 13.7577 267.577 13.558 267.592 13.3544L262.204 23.2715C262.017 23.6409 261.727 23.8256 261.337 23.8256H260.998C260.608 23.8256 260.322 23.6409 260.142 23.2715L254.653 13.3205C254.698 13.7427 254.72 14.1384 254.72 14.5078V26.0646H252.612V9.82634H254.393C254.604 9.82634 254.765 9.84896 254.878 9.89419C254.998 9.93188 255.111 10.045 255.216 10.2334L260.626 19.9583C260.732 20.1543 260.829 20.3616 260.92 20.5802C261.01 20.7988 261.096 21.0175 261.179 21.2361C261.337 20.7913 261.521 20.3616 261.731 19.947L267.04 10.2334C267.138 10.045 267.243 9.93188 267.356 9.89419C267.476 9.84896 267.641 9.82634 267.852 9.82634H269.632Z" fill="white"/>
<path d="M280.419 19.0423C280.419 18.6051 280.355 18.2018 280.228 17.8324C280.107 17.463 279.927 17.1426 279.686 16.8712C279.446 16.5998 279.153 16.3887 278.807 16.238C278.462 16.0872 278.063 16.0118 277.613 16.0118C276.688 16.0118 275.959 16.2794 275.426 16.8147C274.9 17.3499 274.565 18.0925 274.423 19.0423H280.419ZM282.234 24.4249C281.963 24.7416 281.651 25.0167 281.298 25.2504C280.945 25.4766 280.569 25.6613 280.171 25.8045C279.773 25.9477 279.36 26.0533 278.931 26.1211C278.51 26.189 278.093 26.2229 277.68 26.2229C276.891 26.2229 276.158 26.091 275.482 25.8271C274.813 25.5557 274.231 25.1637 273.735 24.6511C273.247 24.1309 272.863 23.4901 272.585 22.7287C272.315 21.9598 272.18 21.0778 272.18 20.0827C272.18 19.2836 272.304 18.541 272.552 17.855C272.8 17.1614 273.153 16.5584 273.611 16.0457C274.077 15.5331 274.644 15.1298 275.313 14.8358C275.982 14.5418 276.733 14.3948 277.567 14.3948C278.266 14.3948 278.909 14.5116 279.495 14.7453C280.088 14.9715 280.599 15.3032 281.028 15.7404C281.456 16.1777 281.79 16.7167 282.031 17.3575C282.279 17.9982 282.403 18.7295 282.403 19.5512C282.403 19.8904 282.365 20.1204 282.29 20.241C282.215 20.3541 282.076 20.4106 281.873 20.4106H274.366C274.389 21.0966 274.487 21.6959 274.659 22.2086C274.832 22.7137 275.069 23.1358 275.369 23.4751C275.678 23.8143 276.042 24.0668 276.463 24.2327C276.884 24.3985 277.353 24.4815 277.872 24.4815C278.36 24.4815 278.781 24.4249 279.134 24.3119C279.495 24.1988 279.803 24.0782 280.058 23.95C280.321 23.8143 280.539 23.6899 280.712 23.5768C280.893 23.4638 281.05 23.4072 281.186 23.4072C281.366 23.4072 281.505 23.4751 281.603 23.6108L282.234 24.4249ZM281.05 9.64542L278.379 12.5629C278.266 12.691 278.157 12.7815 278.052 12.8343C277.947 12.8795 277.808 12.9021 277.635 12.9021H276.305L277.973 10.1656C278.078 9.99219 278.191 9.86404 278.311 9.78111C278.439 9.69065 278.634 9.64542 278.897 9.64542H281.05Z" fill="white"/>
<path d="M292.148 17.3575C291.788 16.8825 291.397 16.5508 290.976 16.3623C290.563 16.1739 290.097 16.0797 289.578 16.0797C288.571 16.0797 287.79 16.4453 287.234 17.1765C286.685 17.9002 286.411 18.9594 286.411 20.3541C286.411 21.0853 286.471 21.711 286.591 22.2312C286.719 22.7438 286.899 23.166 287.132 23.4977C287.373 23.8218 287.666 24.0631 288.012 24.2214C288.357 24.3722 288.748 24.4475 289.184 24.4475C289.823 24.4475 290.375 24.3043 290.841 24.0178C291.307 23.7314 291.742 23.3281 292.148 22.8079V17.3575ZM294.357 9.37402V26.0646H293.027C292.719 26.0646 292.528 25.9176 292.453 25.6236L292.261 24.3005C291.772 24.881 291.216 25.3484 290.593 25.7027C289.977 26.0495 289.263 26.2229 288.451 26.2229C287.797 26.2229 287.204 26.0947 286.67 25.8384C286.144 25.5821 285.693 25.209 285.318 24.7189C284.942 24.2214 284.653 23.607 284.45 22.8757C284.247 22.1445 284.145 21.3039 284.145 20.3541C284.145 19.5022 284.258 18.7106 284.484 17.9794C284.709 17.2481 285.036 16.6149 285.464 16.0797C285.893 15.5444 286.411 15.126 287.02 14.8245C287.628 14.5154 288.316 14.3608 289.082 14.3608C289.774 14.3608 290.36 14.4739 290.841 14.7001C291.329 14.9262 291.765 15.2466 292.148 15.6613V9.37402H294.357Z" fill="white"/>
<path d="M299.723 14.5757V26.0646H297.525V14.5757H299.723ZM300.14 11.025C300.14 11.2285 300.099 11.4245 300.016 11.613C299.934 11.7939 299.821 11.956 299.678 12.0992C299.543 12.2349 299.381 12.3443 299.193 12.4272C299.006 12.5026 298.81 12.5403 298.607 12.5403C298.404 12.5403 298.213 12.5026 298.032 12.4272C297.852 12.3443 297.691 12.2349 297.548 12.0992C297.413 11.956 297.304 11.7939 297.221 11.613C297.146 11.4245 297.108 11.2285 297.108 11.025C297.108 10.8139 297.146 10.6179 297.221 10.437C297.304 10.2485 297.413 10.0864 297.548 9.95073C297.691 9.8075 297.852 9.69819 298.032 9.6228C298.213 9.53987 298.404 9.49841 298.607 9.49841C298.81 9.49841 299.006 9.53987 299.193 9.6228C299.381 9.69819 299.543 9.8075 299.678 9.95073C299.821 10.0864 299.934 10.2485 300.016 10.437C300.099 10.6179 300.14 10.8139 300.14 11.025Z" fill="white"/>
<path d="M310.931 16.7242C310.863 16.8071 310.796 16.875 310.728 16.9277C310.668 16.973 310.578 16.9956 310.457 16.9956C310.337 16.9956 310.209 16.9504 310.074 16.8599C309.946 16.7619 309.781 16.6601 309.578 16.5546C309.383 16.4415 309.142 16.3397 308.857 16.2493C308.579 16.1513 308.233 16.1023 307.82 16.1023C307.279 16.1023 306.802 16.2003 306.388 16.3963C305.975 16.5923 305.629 16.8712 305.351 17.2331C305.081 17.5949 304.874 18.0359 304.731 18.5561C304.589 19.0763 304.517 19.6605 304.517 20.3088C304.517 20.9798 304.592 21.5791 304.743 22.1068C304.893 22.627 305.107 23.068 305.385 23.4298C305.663 23.7841 306.001 24.0555 306.4 24.244C306.798 24.4249 307.241 24.5154 307.73 24.5154C308.203 24.5154 308.594 24.4589 308.902 24.3458C309.21 24.2252 309.466 24.097 309.668 23.9613C309.871 23.8256 310.04 23.7012 310.176 23.5881C310.311 23.4675 310.45 23.4072 310.593 23.4072C310.773 23.4072 310.912 23.4751 311.01 23.6108L311.641 24.4249C311.378 24.7491 311.081 25.0243 310.75 25.2504C310.427 25.4766 310.082 25.6613 309.713 25.8045C309.345 25.9477 308.958 26.0533 308.553 26.1211C308.154 26.189 307.748 26.2229 307.335 26.2229C306.621 26.2229 305.953 26.091 305.329 25.8271C304.713 25.5633 304.175 25.1788 303.717 24.6737C303.266 24.1686 302.909 23.5504 302.646 22.8192C302.383 22.0804 302.252 21.2436 302.252 20.3088C302.252 19.457 302.368 18.6692 302.601 17.9455C302.842 17.2218 303.191 16.5998 303.649 16.0797C304.115 15.5519 304.686 15.1411 305.363 14.8471C306.039 14.5455 306.813 14.3948 307.685 14.3948C308.504 14.3948 309.225 14.5267 309.849 14.7905C310.472 15.0544 311.029 15.4276 311.517 15.91L310.931 16.7242Z" fill="white"/>
<path d="M319.847 20.9647C318.953 20.9948 318.194 21.0665 317.57 21.1795C316.946 21.2851 316.439 21.4283 316.048 21.6092C315.658 21.7902 315.376 22.005 315.203 22.2538C315.03 22.495 314.944 22.7664 314.944 23.068C314.944 23.3544 314.989 23.6032 315.079 23.8143C315.177 24.0178 315.305 24.1875 315.462 24.3232C315.628 24.4513 315.819 24.5456 316.037 24.6059C316.255 24.6662 316.492 24.6963 316.747 24.6963C317.085 24.6963 317.394 24.6624 317.672 24.5946C317.957 24.5267 318.224 24.4325 318.472 24.3119C318.72 24.1837 318.956 24.0292 319.182 23.8482C319.407 23.6673 319.629 23.46 319.847 23.2263V20.9647ZM313.4 16.1814C314.038 15.5708 314.73 15.1147 315.474 14.8132C316.225 14.5116 317.048 14.3608 317.942 14.3608C318.596 14.3608 319.174 14.4701 319.678 14.6888C320.181 14.8999 320.606 15.1976 320.952 15.5821C321.297 15.9666 321.556 16.4264 321.729 16.9617C321.91 17.4969 322 18.0887 322 18.737V26.0646H321.019C320.801 26.0646 320.636 26.0307 320.523 25.9628C320.411 25.8874 320.32 25.7517 320.253 25.5557L320.016 24.5493C319.723 24.8207 319.434 25.0619 319.148 25.273C318.863 25.4766 318.562 25.6537 318.246 25.8045C317.938 25.9477 317.608 26.057 317.254 26.1324C316.901 26.2078 316.511 26.2455 316.082 26.2455C315.631 26.2455 315.207 26.1852 314.809 26.0646C314.418 25.9364 314.076 25.7442 313.783 25.4879C313.49 25.2316 313.257 24.9112 313.084 24.5267C312.919 24.1422 312.836 23.6937 312.836 23.1811C312.836 22.7287 312.956 22.2953 313.197 21.8806C313.445 21.4585 313.843 21.0815 314.392 20.7498C314.948 20.4181 315.669 20.1468 316.556 19.9357C317.45 19.7246 318.547 19.604 319.847 19.5738V18.737C319.847 17.8701 319.663 17.2218 319.295 16.7921C318.926 16.3623 318.385 16.1475 317.672 16.1475C317.191 16.1475 316.785 16.2078 316.454 16.3284C316.131 16.449 315.849 16.5847 315.609 16.7355C315.376 16.8787 315.169 17.0107 314.989 17.1313C314.816 17.2519 314.636 17.3122 314.448 17.3122C314.298 17.3122 314.166 17.2708 314.053 17.1878C313.948 17.1049 313.862 17.0069 313.794 16.8938L313.4 16.1814Z" fill="white"/>
<path d="M147.878 45.0668C147.878 46.2805 147.683 47.3849 147.292 48.38C146.909 49.3751 146.364 50.2307 145.658 50.9469C144.951 51.6556 144.106 52.2059 143.122 52.5979C142.137 52.9899 141.044 53.1859 139.842 53.1859H133.755V36.9477H139.842C141.044 36.9477 142.137 37.1437 143.122 37.5357C144.106 37.9277 144.951 38.4818 145.658 39.1979C146.364 39.9066 146.909 40.7622 147.292 41.7649C147.683 42.76 147.878 43.8606 147.878 45.0668ZM145.421 45.0668C145.421 44.1018 145.289 43.2387 145.026 42.4772C144.763 41.7083 144.388 41.06 143.899 40.5323C143.418 39.997 142.832 39.5899 142.141 39.311C141.457 39.0321 140.691 38.8926 139.842 38.8926H136.167V51.2409H139.842C140.691 51.2409 141.457 51.1015 142.141 50.8225C142.832 50.5436 143.418 50.1403 143.899 49.6126C144.388 49.0773 144.763 48.429 145.026 47.6676C145.289 46.9062 145.421 46.0393 145.421 45.0668Z" fill="white"/>
<path d="M156.322 48.086C155.427 48.1162 154.668 48.1878 154.045 48.3009C153.421 48.4064 152.914 48.5496 152.523 48.7306C152.132 48.9115 151.851 49.1263 151.678 49.3751C151.505 49.6163 151.418 49.8877 151.418 50.1893C151.418 50.4758 151.464 50.7245 151.554 50.9356C151.651 51.1392 151.779 51.3088 151.937 51.4445C152.102 51.5726 152.294 51.6669 152.512 51.7272C152.73 51.7875 152.966 51.8176 153.222 51.8176C153.56 51.8176 153.868 51.7837 154.146 51.7159C154.432 51.648 154.698 51.5538 154.946 51.4332C155.194 51.305 155.431 51.1505 155.657 50.9695C155.882 50.7886 156.104 50.5813 156.322 50.3476V48.086ZM149.874 43.3027C150.513 42.6921 151.204 42.236 151.948 41.9345C152.7 41.6329 153.522 41.4822 154.417 41.4822C155.07 41.4822 155.649 41.5915 156.152 41.8101C156.656 42.0212 157.081 42.3189 157.426 42.7034C157.772 43.0879 158.031 43.5477 158.204 44.083C158.384 44.6182 158.474 45.21 158.474 45.8583V53.1859H157.494C157.276 53.1859 157.111 53.152 156.998 53.0841C156.885 53.0087 156.795 52.873 156.727 52.677L156.491 51.6706C156.198 51.942 155.908 52.1833 155.623 52.3943C155.337 52.5979 155.037 52.775 154.721 52.9258C154.413 53.069 154.082 53.1784 153.729 53.2537C153.376 53.3291 152.985 53.3668 152.557 53.3668C152.106 53.3668 151.681 53.3065 151.283 53.1859C150.892 53.0577 150.551 52.8655 150.257 52.6092C149.964 52.3529 149.731 52.0325 149.559 51.648C149.393 51.2635 149.311 50.815 149.311 50.3024C149.311 49.85 149.431 49.4166 149.671 49.0019C149.919 48.5798 150.318 48.2029 150.866 47.8712C151.422 47.5395 152.144 47.2681 153.03 47.057C153.924 46.8459 155.022 46.7253 156.322 46.6951V45.8583C156.322 44.9914 156.137 44.3431 155.769 43.9134C155.401 43.4837 154.86 43.2688 154.146 43.2688C153.665 43.2688 153.259 43.3291 152.929 43.4497C152.606 43.5704 152.324 43.7061 152.083 43.8568C151.851 44.0001 151.644 44.132 151.464 44.2526C151.291 44.3732 151.11 44.4335 150.922 44.4335C150.772 44.4335 150.641 44.3921 150.528 44.3091C150.423 44.2262 150.336 44.1282 150.269 44.0151L149.874 43.3027Z" fill="white"/>
<path d="M164.847 53.3668C163.923 53.3668 163.209 53.1067 162.705 52.5866C162.21 52.0664 161.962 51.3239 161.962 50.3589V43.4837H160.632C160.504 43.4837 160.395 43.446 160.305 43.3706C160.222 43.2877 160.181 43.167 160.181 43.0087V42.1154L162.04 41.8553L162.536 38.429C162.566 38.3008 162.623 38.2028 162.705 38.135C162.796 38.0596 162.908 38.0219 163.044 38.0219H164.16V41.8779H167.406V43.4837H164.16V50.2119C164.16 50.6642 164.268 51.0035 164.486 51.2296C164.712 51.4482 164.997 51.5576 165.343 51.5576C165.546 51.5576 165.719 51.5312 165.862 51.4784C166.012 51.4256 166.14 51.3691 166.245 51.3088C166.35 51.2409 166.44 51.1806 166.515 51.1278C166.59 51.0751 166.658 51.0487 166.718 51.0487C166.793 51.0487 166.85 51.0675 166.887 51.1052C166.932 51.1354 166.977 51.1882 167.022 51.2635L167.676 52.3265C167.316 52.6582 166.887 52.9145 166.391 53.0954C165.895 53.2764 165.381 53.3668 164.847 53.3668Z" fill="white"/>
<path d="M175.584 48.086C174.69 48.1162 173.931 48.1878 173.308 48.3009C172.684 48.4064 172.177 48.5496 171.786 48.7306C171.395 48.9115 171.113 49.1263 170.941 49.3751C170.768 49.6163 170.681 49.8877 170.681 50.1893C170.681 50.4758 170.726 50.7245 170.817 50.9356C170.914 51.1392 171.042 51.3088 171.2 51.4445C171.365 51.5726 171.557 51.6669 171.775 51.7272C171.993 51.7875 172.229 51.8176 172.485 51.8176C172.823 51.8176 173.131 51.7837 173.409 51.7159C173.695 51.648 173.961 51.5538 174.209 51.4332C174.457 51.305 174.694 51.1505 174.919 50.9695C175.145 50.7886 175.367 50.5813 175.584 50.3476V48.086ZM169.137 43.3027C169.776 42.6921 170.467 42.236 171.211 41.9345C171.963 41.6329 172.785 41.4822 173.68 41.4822C174.333 41.4822 174.912 41.5915 175.415 41.8101C175.919 42.0212 176.343 42.3189 176.689 42.7034C177.035 43.0879 177.294 43.5477 177.467 44.083C177.647 44.6182 177.737 45.21 177.737 45.8583V53.1859H176.757C176.539 53.1859 176.373 53.152 176.261 53.0841C176.148 53.0087 176.058 52.873 175.99 52.677L175.754 51.6706C175.46 51.942 175.171 52.1833 174.886 52.3943C174.6 52.5979 174.299 52.775 173.984 52.9258C173.676 53.069 173.345 53.1784 172.992 53.2537C172.639 53.3291 172.248 53.3668 171.82 53.3668C171.369 53.3668 170.944 53.3065 170.546 53.1859C170.155 53.0577 169.813 52.8655 169.52 52.6092C169.227 52.3529 168.994 52.0325 168.822 51.648C168.656 51.2635 168.574 50.815 168.574 50.3024C168.574 49.85 168.694 49.4166 168.934 49.0019C169.182 48.5798 169.58 48.2029 170.129 47.8712C170.685 47.5395 171.406 47.2681 172.293 47.057C173.187 46.8459 174.284 46.7253 175.584 46.6951V45.8583C175.584 44.9914 175.4 44.3431 175.032 43.9134C174.664 43.4837 174.123 43.2688 173.409 43.2688C172.928 43.2688 172.522 43.3291 172.192 43.4497C171.869 43.5704 171.587 43.7061 171.346 43.8568C171.113 44.0001 170.907 44.132 170.726 44.2526C170.554 44.3732 170.373 44.4335 170.185 44.4335C170.035 44.4335 169.904 44.3921 169.791 44.3091C169.686 44.2262 169.599 44.1282 169.532 44.0151L169.137 43.3027Z" fill="white"/>
<path d="M195.207 39.5937C195.132 39.7219 195.053 39.8161 194.97 39.8764C194.888 39.9367 194.783 39.9669 194.655 39.9669C194.52 39.9669 194.366 39.9066 194.193 39.786C194.02 39.6578 193.802 39.5183 193.539 39.3676C193.283 39.2092 192.975 39.0698 192.615 38.9492C192.254 38.821 191.822 38.7569 191.318 38.7569C190.845 38.7569 190.428 38.821 190.067 38.9492C189.714 39.0698 189.417 39.2394 189.177 39.458C188.936 39.6691 188.752 39.9216 188.625 40.2157C188.504 40.5021 188.444 40.815 188.444 41.1542C188.444 41.5915 188.553 41.9533 188.771 42.2398C188.997 42.5263 189.29 42.7713 189.65 42.9748C190.011 43.1783 190.42 43.3555 190.879 43.5063C191.337 43.6571 191.807 43.8154 192.288 43.9812C192.769 44.1395 193.238 44.3242 193.697 44.5353C194.155 44.7464 194.565 45.014 194.925 45.3382C195.286 45.6548 195.575 46.0468 195.793 46.5142C196.019 46.9741 196.131 47.5395 196.131 48.2104C196.131 48.9266 196.007 49.5975 195.759 50.2232C195.519 50.8489 195.166 51.3955 194.7 51.8629C194.234 52.3303 193.659 52.6997 192.975 52.971C192.299 53.2349 191.529 53.3668 190.665 53.3668C190.146 53.3668 189.643 53.3141 189.154 53.2085C188.666 53.1105 188.204 52.971 187.768 52.7901C187.332 52.6017 186.923 52.3793 186.539 52.1229C186.164 51.8591 185.825 51.5651 185.525 51.2409L186.212 50.0875C186.28 49.9971 186.359 49.9217 186.449 49.8614C186.547 49.801 186.656 49.7709 186.776 49.7709C186.934 49.7709 187.114 49.8538 187.317 50.0197C187.527 50.1855 187.783 50.3702 188.084 50.5738C188.392 50.7698 188.756 50.9507 189.177 51.1165C189.605 51.2824 190.124 51.3653 190.732 51.3653C191.228 51.3653 191.672 51.3012 192.062 51.1731C192.453 51.0374 192.78 50.8489 193.043 50.6077C193.314 50.3589 193.52 50.0611 193.663 49.7143C193.806 49.3676 193.877 48.9831 193.877 48.5609C193.877 48.086 193.768 47.6978 193.55 47.3962C193.332 47.0947 193.043 46.8421 192.682 46.6386C192.322 46.435 191.912 46.2617 191.454 46.1184C190.995 45.9752 190.526 45.8282 190.045 45.6774C189.564 45.5191 189.094 45.3382 188.636 45.1346C188.177 44.9311 187.768 44.6672 187.407 44.3431C187.047 44.0114 186.757 43.6005 186.539 43.1105C186.321 42.6129 186.212 42.0023 186.212 41.2786C186.212 40.6981 186.325 40.1365 186.551 39.5937C186.776 39.0509 187.103 38.5722 187.531 38.1576C187.967 37.7354 188.501 37.4 189.132 37.1512C189.763 36.8949 190.484 36.7667 191.296 36.7667C192.205 36.7667 193.039 36.9137 193.798 37.2077C194.565 37.4942 195.23 37.9088 195.793 38.4516L195.207 39.5937Z" fill="white"/>
<path d="M206.603 43.8455C206.535 43.9284 206.468 43.9963 206.4 44.0491C206.34 44.0943 206.25 44.1169 206.13 44.1169C206.009 44.1169 205.882 44.0717 205.746 43.9812C205.619 43.8832 205.453 43.7814 205.25 43.6759C205.055 43.5628 204.815 43.461 204.529 43.3706C204.251 43.2726 203.905 43.2236 203.492 43.2236C202.951 43.2236 202.474 43.3216 202.061 43.5176C201.647 43.7136 201.302 43.9925 201.024 44.3544C200.753 44.7162 200.546 45.1572 200.404 45.6774C200.261 46.1976 200.19 46.7818 200.19 47.4301C200.19 48.1011 200.265 48.7004 200.415 49.2281C200.565 49.7483 200.779 50.1893 201.057 50.5511C201.335 50.9055 201.674 51.1768 202.072 51.3653C202.47 51.5462 202.913 51.6367 203.402 51.6367C203.875 51.6367 204.266 51.5802 204.574 51.4671C204.882 51.3465 205.138 51.2183 205.341 51.0826C205.544 50.9469 205.713 50.8225 205.848 50.7094C205.983 50.5888 206.122 50.5285 206.265 50.5285C206.445 50.5285 206.584 50.5964 206.682 50.7321L207.313 51.5462C207.05 51.8704 206.753 52.1456 206.423 52.3717C206.1 52.5979 205.754 52.7826 205.386 52.9258C205.017 53.069 204.631 53.1746 204.225 53.2424C203.826 53.3103 203.421 53.3442 203.007 53.3442C202.294 53.3442 201.625 53.2123 201.001 52.9484C200.385 52.6846 199.848 52.3001 199.389 51.795C198.938 51.2899 198.581 50.6718 198.318 49.9405C198.055 49.2017 197.924 48.3649 197.924 47.4301C197.924 46.5783 198.04 45.7905 198.273 45.0668C198.514 44.3431 198.863 43.7211 199.322 43.201C199.788 42.6733 200.359 42.2624 201.035 41.9684C201.711 41.6668 202.485 41.5161 203.357 41.5161C204.176 41.5161 204.897 41.648 205.521 41.9118C206.145 42.1757 206.701 42.5489 207.189 43.0313L206.603 43.8455Z" fill="white"/>
<path d="M211.664 41.697V53.1859H209.466V41.697H211.664ZM212.081 38.1463C212.081 38.3498 212.04 38.5458 211.957 38.7343C211.875 38.9152 211.762 39.0773 211.619 39.2206C211.484 39.3563 211.322 39.4656 211.135 39.5485C210.947 39.6239 210.751 39.6616 210.548 39.6616C210.346 39.6616 210.154 39.6239 209.974 39.5485C209.793 39.4656 209.632 39.3563 209.489 39.2206C209.354 39.0773 209.245 38.9152 209.162 38.7343C209.087 38.5458 209.049 38.3498 209.049 38.1463C209.049 37.9352 209.087 37.7392 209.162 37.5583C209.245 37.3698 209.354 37.2077 209.489 37.072C209.632 36.9288 209.793 36.8195 209.974 36.7441C210.154 36.6612 210.346 36.6197 210.548 36.6197C210.751 36.6197 210.947 36.6612 211.135 36.7441C211.322 36.8195 211.484 36.9288 211.619 37.072C211.762 37.2077 211.875 37.3698 211.957 37.5583C212.04 37.7392 212.081 37.9352 212.081 38.1463Z" fill="white"/>
<path d="M222.432 46.1637C222.432 45.7264 222.368 45.3231 222.241 44.9537C222.12 44.5843 221.94 44.2639 221.7 43.9925C221.459 43.7211 221.166 43.51 220.82 43.3593C220.475 43.2085 220.077 43.1331 219.626 43.1331C218.701 43.1331 217.973 43.4007 217.439 43.936C216.913 44.4712 216.579 45.2138 216.436 46.1637H222.432ZM224.247 51.5462C223.977 51.8629 223.665 52.138 223.312 52.3717C222.958 52.5979 222.583 52.7826 222.184 52.9258C221.786 53.069 221.373 53.1746 220.944 53.2424C220.524 53.3103 220.107 53.3442 219.693 53.3442C218.904 53.3442 218.172 53.2123 217.495 52.9484C216.827 52.677 216.244 52.285 215.748 51.7724C215.26 51.2522 214.877 50.6114 214.599 49.85C214.328 49.0811 214.193 48.1991 214.193 47.204C214.193 46.4049 214.317 45.6623 214.565 44.9763C214.813 44.2828 215.166 43.6797 215.624 43.167C216.09 42.6544 216.658 42.2511 217.326 41.9571C217.995 41.6631 218.747 41.5161 219.581 41.5161C220.279 41.5161 220.922 41.6329 221.508 41.8666C222.102 42.0928 222.613 42.4245 223.041 42.8617C223.469 43.299 223.804 43.838 224.044 44.4788C224.292 45.1195 224.416 45.8508 224.416 46.6725C224.416 47.0117 224.379 47.2417 224.303 47.3623C224.228 47.4754 224.089 47.5319 223.886 47.5319H216.38C216.402 48.2179 216.5 48.8172 216.673 49.3299C216.845 49.835 217.082 50.2571 217.383 50.5964C217.691 50.9356 218.055 51.1882 218.476 51.354C218.897 51.5199 219.366 51.6028 219.885 51.6028C220.373 51.6028 220.794 51.5462 221.147 51.4332C221.508 51.3201 221.816 51.1995 222.072 51.0713C222.335 50.9356 222.553 50.8112 222.725 50.6981C222.906 50.5851 223.064 50.5285 223.199 50.5285C223.379 50.5285 223.518 50.5964 223.616 50.7321L224.247 51.5462Z" fill="white"/>
<path d="M228.841 43.2914C229.089 43.0276 229.348 42.7863 229.619 42.5677C229.89 42.3491 230.175 42.1644 230.476 42.0136C230.784 41.8553 231.111 41.7347 231.456 41.6518C231.809 41.5613 232.185 41.5161 232.583 41.5161C233.215 41.5161 233.767 41.6216 234.24 41.8327C234.721 42.0438 235.123 42.3416 235.446 42.726C235.769 43.103 236.014 43.559 236.179 44.0943C236.344 44.6295 236.427 45.2213 236.427 45.8696V53.1859H234.218V45.8696C234.218 45.0479 234.03 44.4109 233.654 43.9586C233.278 43.4987 232.704 43.2688 231.93 43.2688C231.366 43.2688 230.836 43.4045 230.34 43.6759C229.852 43.9398 229.397 44.3016 228.977 44.7615V53.1859H226.779V41.697H228.097C228.405 41.697 228.597 41.844 228.672 42.138L228.841 43.2914Z" fill="white"/>
<path d="M247.418 43.8455C247.351 43.9284 247.283 43.9963 247.215 44.0491C247.155 44.0943 247.065 44.1169 246.945 44.1169C246.825 44.1169 246.697 44.0717 246.562 43.9812C246.434 43.8832 246.269 43.7814 246.066 43.6759C245.87 43.5628 245.63 43.461 245.344 43.3706C245.066 43.2726 244.721 43.2236 244.307 43.2236C243.766 43.2236 243.289 43.3216 242.876 43.5176C242.463 43.7136 242.117 43.9925 241.839 44.3544C241.568 44.7162 241.362 45.1572 241.219 45.6774C241.076 46.1976 241.005 46.7818 241.005 47.4301C241.005 48.1011 241.08 48.7004 241.23 49.2281C241.381 49.7483 241.595 50.1893 241.873 50.5511C242.151 50.9055 242.489 51.1768 242.887 51.3653C243.285 51.5462 243.729 51.6367 244.217 51.6367C244.691 51.6367 245.081 51.5802 245.389 51.4671C245.698 51.3465 245.953 51.2183 246.156 51.0826C246.359 50.9469 246.528 50.8225 246.663 50.7094C246.798 50.5888 246.937 50.5285 247.08 50.5285C247.261 50.5285 247.4 50.5964 247.497 50.7321L248.128 51.5462C247.865 51.8704 247.569 52.1456 247.238 52.3717C246.915 52.5979 246.569 52.7826 246.201 52.9258C245.833 53.069 245.446 53.1746 245.04 53.2424C244.642 53.3103 244.236 53.3442 243.823 53.3442C243.109 53.3442 242.44 53.2123 241.816 52.9484C241.2 52.6846 240.663 52.3001 240.205 51.795C239.754 51.2899 239.397 50.6718 239.134 49.9405C238.871 49.2017 238.739 48.3649 238.739 47.4301C238.739 46.5783 238.856 45.7905 239.089 45.0668C239.329 44.3431 239.679 43.7211 240.137 43.201C240.603 42.6733 241.174 42.2624 241.85 41.9684C242.526 41.6668 243.3 41.5161 244.172 41.5161C244.991 41.5161 245.713 41.648 246.336 41.9118C246.96 42.1757 247.516 42.5489 248.004 43.0313L247.418 43.8455Z" fill="white"/>
<path d="M257.568 46.1637C257.568 45.7264 257.504 45.3231 257.376 44.9537C257.256 44.5843 257.076 44.2639 256.835 43.9925C256.595 43.7211 256.302 43.51 255.956 43.3593C255.61 43.2085 255.212 43.1331 254.761 43.1331C253.837 43.1331 253.108 43.4007 252.575 43.936C252.049 44.4712 251.714 45.2138 251.571 46.1637H257.568ZM259.383 51.5462C259.112 51.8629 258.8 52.138 258.447 52.3717C258.094 52.5979 257.718 52.7826 257.32 52.9258C256.922 53.069 256.508 53.1746 256.08 53.2424C255.659 53.3103 255.242 53.3442 254.829 53.3442C254.04 53.3442 253.307 53.2123 252.631 52.9484C251.962 52.677 251.38 52.285 250.884 51.7724C250.395 51.2522 250.012 50.6114 249.734 49.85C249.464 49.0811 249.328 48.1991 249.328 47.204C249.328 46.4049 249.452 45.6623 249.7 44.9763C249.948 44.2828 250.301 43.6797 250.76 43.167C251.226 42.6544 251.793 42.2511 252.462 41.9571C253.131 41.6631 253.882 41.5161 254.716 41.5161C255.415 41.5161 256.057 41.6329 256.644 41.8666C257.237 42.0928 257.748 42.4245 258.177 42.8617C258.605 43.299 258.939 43.838 259.18 44.4788C259.428 45.1195 259.552 45.8508 259.552 46.6725C259.552 47.0117 259.514 47.2417 259.439 47.3623C259.364 47.4754 259.225 47.5319 259.022 47.5319H251.515C251.538 48.2179 251.635 48.8172 251.808 49.3299C251.981 49.835 252.218 50.2571 252.518 50.5964C252.826 50.9356 253.191 51.1882 253.612 51.354C254.032 51.5199 254.502 51.6028 255.02 51.6028C255.509 51.6028 255.93 51.5462 256.283 51.4332C256.644 51.3201 256.952 51.1995 257.207 51.0713C257.47 50.9356 257.688 50.8112 257.861 50.6981C258.041 50.5851 258.199 50.5285 258.334 50.5285C258.515 50.5285 258.654 50.5964 258.751 50.7321L259.383 51.5462Z" fill="white"/>
<path d="M14.5508 0H26.4725L31.7879 38.1662H31.9398L37.2552 0H49.177V53.326H41.2798V12.9506H41.1279L35.0531 53.326H28.0671L21.9924 12.9506H21.8405V53.326H14.5508V0Z" fill="white"/>
<path d="M96.8165 53.3652C92.8733 53.3652 89.8912 52.2534 87.8702 50.0298C85.8493 47.7569 84.8389 44.5204 84.8389 40.3204V37.3556H92.5282V40.9133C92.5282 44.2733 93.933 45.9533 96.7426 45.9533C98.1227 45.9533 99.1578 45.558 99.8479 44.7674C100.587 43.9274 100.957 42.5933 100.957 40.7651C100.957 38.5909 100.464 36.6886 99.4782 35.058C98.4924 33.3779 96.6686 31.3767 94.0069 29.0544C90.6552 26.0896 88.3139 23.4214 86.983 21.0496C85.6522 18.6284 84.9867 15.9107 84.9867 12.8966C84.9867 8.79537 86.0218 5.63299 88.0921 3.40944C90.1623 1.13648 93.169 0 97.1123 0C101.006 0 103.939 1.13648 105.911 3.40944C107.932 5.63299 108.942 8.84478 108.942 13.0448V15.1943H101.253V12.526C101.253 10.7472 100.908 9.46244 100.218 8.67184C99.5275 7.83183 98.517 7.41183 97.1862 7.41183C94.4752 7.41183 93.1197 9.06714 93.1197 12.3778C93.1197 14.2554 93.6126 16.0096 94.5984 17.6402C95.6335 19.2708 97.4819 21.2472 100.144 23.5696C103.545 26.5343 105.886 29.2273 107.168 31.6485C108.449 34.0697 109.09 36.9109 109.09 40.1721C109.09 44.4216 108.03 47.6828 105.911 49.9557C103.84 52.2287 100.809 53.3652 96.8165 53.3652Z" fill="white"/>
<path d="M0 0H8.35281V53.326H0V0Z" fill="white"/>
<path d="M55.4189 0H68.176C72.327 0 75.4404 1.11731 77.5159 3.35192C79.5915 5.58653 80.6292 8.86227 80.6292 13.1791V40.1469C80.6292 44.4637 79.5915 47.7395 77.5159 49.9741C75.4404 52.2087 72.327 53.326 68.176 53.326H55.4189V0ZM68.0241 45.708C69.3909 45.708 70.4287 45.3017 71.1374 44.4891C71.8968 43.6765 72.2764 42.3561 72.2764 40.5278V12.7982C72.2764 10.9699 71.8968 9.64947 71.1374 8.83688C70.4287 8.0243 69.3909 7.618 68.0241 7.618H63.7718V45.708H68.0241Z" fill="white"/>
</svg>
