<svg width="157" height="93" viewBox="0 0 157 93" fill="none" xmlns="http://www.w3.org/2000/svg">
<path d="M134.477 55.4492C135.734 55.4492 136.708 55.0722 137.367 54.2868C137.933 53.6271 138.215 52.716 138.215 51.585C138.215 50.454 137.933 49.543 137.367 48.8832C136.708 48.0978 135.734 47.7208 134.477 47.7208H117.043V55.512H134.477V55.4492ZM135.2 43.4797C138.938 43.4797 141.514 44.7049 142.927 47.1239C143.618 48.3492 143.964 49.8257 143.964 51.5222C143.964 55.0408 142.613 57.397 139.88 58.6536C138.529 59.282 136.99 59.5961 135.168 59.5961H117.012V69.5236H111.515V43.4482H135.2V43.4797Z" fill="white"/>
<path d="M49.2866 63.9314C47.2762 63.9314 45.6741 63.3659 44.5119 62.2663C43.3496 61.1668 42.7842 59.6274 42.7842 57.6168C42.7842 55.6375 43.3496 54.0981 44.5119 52.9986C45.6741 51.899 47.2134 51.3335 49.2238 51.3335H67.6001V50.3596C67.6001 49.0087 67.0975 48.1919 66.0923 47.9092C65.7782 47.8149 65.307 47.7835 64.6787 47.7835H44.1035V43.4795H66.0295C68.1969 43.4795 69.9246 44.045 71.1811 45.176C71.9665 45.8671 72.5005 46.7154 72.7832 47.6264C72.9717 48.3176 73.0659 50.1397 73.0659 51.3964V63.9L49.2866 63.9314ZM67.6001 59.596V55.449H50.0405C48.8782 55.449 48.3128 56.1402 48.3128 57.5539C48.3128 58.9362 48.8782 59.596 50.0405 59.596H67.6001Z" fill="white"/>
<path d="M106.112 13.7915C106.583 11.9379 86.1017 12.2207 83.6201 27.8345C81.1385 43.4169 103.599 51.9306 104.007 50.297C104.007 50.297 101.054 46.4328 100.646 43.4483C100.175 40.4952 100.049 39.05 100.049 39.05C100.049 39.05 97.9442 40.3695 93.2324 37.762C88.5205 35.1544 88.1435 31.8243 88.2378 31.8243C88.332 31.8243 91.1905 28.8398 93.5465 27.8659C95.9338 26.892 97.693 26.9234 97.693 26.9234C97.693 26.9234 97.1275 24.6614 97.9128 22.0853C99.2636 17.8127 106.112 13.7915 106.112 13.7915Z" fill="white"/>
<path d="M105.798 18.8808C105.798 18.8808 108.468 22.745 108.499 24.5043C108.499 26.3265 106.991 29.688 107.148 30.2221C107.274 30.7247 110.447 27.2375 113.18 27.2375C116.289 27.3004 118.08 29.9707 118.08 29.9707C118.08 29.9707 115.504 35.4057 114.122 35.5C112.708 35.5942 108.436 34.9973 108.154 35.2486C107.934 35.5 110.635 39.0814 109.504 40.8721C108.436 42.6943 104.133 45.0191 104.133 45.0191C104.133 45.0191 102.499 42.1916 102.311 40.3695C102.122 38.6102 102.531 34.5575 102.782 34.1491C103.065 33.7092 100.457 38.0133 97.5047 36.788C94.5519 35.5628 90.9395 32.5154 90.9395 32.5154C90.9395 32.5154 95.777 29.3738 96.8136 29.2796C97.8502 29.1225 100.96 29.0282 100.96 29.0282C100.96 29.0282 99.735 25.9495 100.489 24.2844C100.426 22.1167 105.232 18.5038 105.798 18.8808Z" fill="white"/>
<path d="M114.593 22.7763C116.415 22.7763 117.954 21.2055 117.954 19.2891C117.954 17.3413 116.415 15.7705 114.593 15.7705C112.771 15.7705 111.231 17.3413 111.231 19.2891C111.231 21.2055 112.771 22.7763 114.593 22.7763Z" fill="white"/>
<path d="M38.4176 43.4795V47.7521H24.5333C24.1249 47.7521 23.748 47.7835 23.4339 47.8149C23.214 47.8778 22.9627 48.0034 22.68 48.2233C22.2088 48.6632 21.9575 49.3543 21.9575 50.2968V51.2079L38.4176 51.145V55.449L21.9575 55.5119V69.492H16.4603V55.5119H13.0049V51.2079H16.4603V48.9459C16.4603 47.972 16.5545 47.1866 16.7116 46.5583C16.9 45.8985 17.2456 45.3016 17.811 44.7361C18.345 44.2021 18.9419 43.8251 19.6015 43.6994C20.2298 43.5423 21.0151 43.4795 21.9575 43.4795H38.4176Z" fill="white"/>
<path d="M16.617 76.6236C16.617 78.2886 16.083 78.7285 15.1092 78.7285C14.7637 78.7285 14.5124 78.6656 14.3239 78.5714L14.1982 79.0112C14.3867 79.1055 14.7637 79.1997 15.1092 79.1997C16.1772 79.1997 17.151 78.6656 17.151 76.7493V71.5342H16.617V76.6236Z" fill="white"/>
<path d="M22.963 73.7021H22.429V77.0637C22.429 77.2836 22.3976 77.5035 22.3348 77.6606C22.1149 78.1946 21.518 78.7601 20.7327 78.7601C19.6647 78.7601 19.3192 77.9119 19.3192 76.7495V73.7336H18.7852V76.8438C18.7852 78.8544 19.9474 79.2314 20.6071 79.2314C21.5495 79.2314 22.1777 78.6345 22.429 78.1318H22.4604L22.4918 79.1057H22.9944C22.963 78.6973 22.963 78.2575 22.963 77.7862V73.7021Z" fill="white"/>
<path d="M24.7534 79.074H25.2874V75.7439C25.2874 75.5868 25.3188 75.3983 25.3503 75.2726C25.5701 74.5815 26.1984 74.016 26.9523 74.016C28.0517 74.016 28.4287 74.8957 28.4287 75.901V79.074H28.9627V75.8381C28.9627 73.8275 27.612 73.5762 27.0779 73.5762C26.1984 73.5762 25.5073 74.0474 25.2246 74.6757H25.1932L25.1618 73.7018H24.6592C24.6906 74.1417 24.6906 74.4872 24.6906 74.9899V79.074H24.7534Z" fill="white"/>
<path d="M30.91 72.6973V73.6712H29.999V74.111H30.91V77.504C30.91 78.038 31.0042 78.5093 31.2555 78.792C31.444 79.0433 31.7895 79.169 32.1665 79.169C32.4806 79.169 32.7319 79.1062 32.9204 79.0433L32.8576 78.6349C32.7319 78.6664 32.512 78.6978 32.2293 78.6978C31.6639 78.6978 31.444 78.2579 31.444 77.5982V74.1424H32.9832V73.7026H31.444V72.5088L30.91 72.6973Z" fill="white"/>
<path d="M36.0934 78.7598C34.994 78.7598 34.1459 77.7545 34.1459 76.4036C34.1459 75.2412 34.7741 74.016 36.1248 74.016C37.5384 74.016 38.1038 75.3669 38.1038 76.3408C38.1038 77.7231 37.2243 78.7598 36.0934 78.7598ZM36.0934 79.1997C37.2871 79.1997 38.6693 78.3514 38.6693 76.3408C38.6693 74.7072 37.6641 73.5762 36.1877 73.5762C34.8683 73.5762 33.6433 74.5815 33.6433 76.435C33.6118 78.1001 34.6799 79.1997 36.0934 79.1997Z" fill="white"/>
<path d="M39.5488 78.8228C39.8944 79.0427 40.397 79.1998 40.8996 79.1998C41.999 79.1998 42.7215 78.5715 42.7215 77.6604C42.7215 76.8436 42.2189 76.4038 41.3393 76.0582C40.6169 75.7441 40.2399 75.5241 40.2399 74.9586C40.2399 74.456 40.5854 74.0162 41.2765 74.0162C41.8105 74.0162 42.1561 74.2047 42.3445 74.3303L42.533 73.8905C42.2503 73.702 41.8419 73.5449 41.3393 73.5449C40.3027 73.5449 39.6745 74.2047 39.6745 74.9901C39.6745 75.6498 40.1457 76.121 41.0252 76.4666C41.8105 76.7808 42.1561 77.0949 42.1561 77.6918C42.1561 78.2573 41.7477 78.6972 40.8996 78.6972C40.4284 78.6972 39.9886 78.5087 39.6745 78.3202L39.5488 78.8228Z" fill="white"/>
<path d="M50.0405 78.4143C49.7578 78.5399 49.3494 78.7284 48.6898 78.7284C47.4333 78.7284 46.5537 77.8173 46.5537 76.4036C46.5537 75.147 47.3076 74.0474 48.7212 74.0474C49.318 74.0474 49.7264 74.2045 49.9777 74.3616L50.1662 73.9218C49.9777 73.7647 49.4122 73.5762 48.7526 73.5762C47.1505 73.5762 45.9883 74.7386 45.9883 76.435C45.9883 78.0373 47.0249 79.1682 48.5641 79.1682C49.3494 79.1682 49.9149 78.9483 50.1347 78.8227L50.0405 78.4143Z" fill="white"/>
<path d="M53.4645 78.7598C52.3651 78.7598 51.5169 77.7545 51.5169 76.4036C51.5169 75.2412 52.1452 74.016 53.4959 74.016C54.9095 74.016 55.4749 75.3669 55.4749 76.3408C55.4749 77.7231 54.5954 78.7598 53.4645 78.7598ZM53.4645 79.1997C54.6582 79.1997 56.0404 78.3514 56.0404 76.3408C56.0404 74.7072 55.0352 73.5762 53.5588 73.5762C52.2394 73.5762 51.0143 74.5815 51.0143 76.435C50.9829 78.1001 52.051 79.1997 53.4645 79.1997Z" fill="white"/>
<path d="M57.3589 79.074H57.8929V75.7439C57.8929 75.5868 57.9243 75.3983 57.9557 75.2726C58.1756 74.5815 58.8039 74.016 59.5578 74.016C60.6572 74.016 61.0342 74.8957 61.0342 75.901V79.074H61.5682V75.8381C61.5682 73.8275 60.2174 73.5762 59.6834 73.5762C58.8039 73.5762 58.1128 74.0474 57.8301 74.6757H57.7987L57.7672 73.7018H57.2646C57.2961 74.1417 57.2961 74.4872 57.2961 74.9899V79.074H57.3589Z" fill="white"/>
<path d="M63.5164 72.6973V73.6712H62.6055V74.111H63.5164V77.504C63.5164 78.038 63.6107 78.5093 63.862 78.792C64.0504 79.0433 64.396 79.169 64.7729 79.169C65.0871 79.169 65.3384 79.1062 65.5268 79.0433L65.464 78.6349C65.3384 78.6664 65.1185 78.6978 64.8358 78.6978C64.2703 78.6978 64.0504 78.2579 64.0504 77.5982V74.1424H65.5897V73.7026H64.0504V72.5088L63.5164 72.6973Z" fill="white"/>
<path d="M66.7201 79.074H67.2541V76.1209C67.2541 75.9324 67.2541 75.7753 67.2855 75.6182C67.4425 74.77 67.9451 74.1102 68.699 74.1102C68.7933 74.1102 68.8875 74.1102 68.9503 74.1102V73.6076C68.8875 73.6076 68.7933 73.5762 68.7305 73.5762C68.008 73.5762 67.4425 74.1102 67.2227 74.77H67.1912L67.1598 73.6704H66.6572C66.6886 74.2045 66.6886 74.7386 66.6886 75.2726V79.074H66.7201Z" fill="white"/>
<path d="M72.8148 77.3461C72.8148 77.4404 72.8148 77.566 72.7519 77.6603C72.5635 78.1943 72.0609 78.7284 71.1499 78.7284C70.5845 78.7284 70.0819 78.3828 70.0819 77.5974C70.0819 76.3094 71.6211 76.1209 72.8148 76.1523V77.3461ZM73.3488 75.6811C73.3488 74.7386 73.0346 73.5762 71.4954 73.5762C71.0242 73.5762 70.396 73.7018 69.9248 74.0474L70.0819 74.4244C70.4588 74.1417 70.9614 74.016 71.4326 74.016C72.7205 74.016 72.8148 75.0841 72.8148 75.5868V75.7439C70.6159 75.7125 69.5479 76.4665 69.5479 77.7231C69.5479 78.4457 70.0505 79.1997 71.1185 79.1997C71.9666 79.1997 72.5635 78.7284 72.8462 78.2886H72.8776L72.9404 79.074H73.443C73.3802 78.6656 73.3802 78.2258 73.3802 77.7859V75.6811H73.3488Z" fill="white"/>
<path d="M77.5264 75.9008C77.6206 75.084 78.1232 74.0158 79.3169 74.0158C80.6048 74.0158 80.9189 75.1468 80.9189 75.9008H77.5264ZM81.4529 76.3406C81.4843 76.2464 81.4843 76.1521 81.4843 76.0265C81.4843 75.2411 81.1388 73.6074 79.3797 73.6074C77.9976 73.6074 76.9609 74.7384 76.9609 76.5291C76.9609 78.0999 77.9347 79.2309 79.4739 79.2309C80.4163 79.2309 80.9503 79.011 81.1702 78.8853L81.0446 78.4769C80.7304 78.634 80.3535 78.7911 79.5682 78.7911C78.4687 78.7911 77.5264 78.0999 77.5264 76.4035H81.4529V76.3406Z" fill="white"/>
<path d="M83.3377 71.126H82.8037V79.0743H83.3377V71.126Z" fill="white"/>
<path d="M91.0963 78.1318C90.8136 78.2575 90.4367 78.3832 89.9027 78.3832C88.8346 78.3832 88.0179 77.5978 88.0179 76.3411C88.0179 75.2101 88.6776 74.2991 89.9341 74.2991C90.4681 74.2991 90.845 74.4247 91.0649 74.5504L91.2848 73.7964C91.0021 73.6393 90.4995 73.5137 89.9341 73.5137C88.175 73.5137 87.0127 74.7389 87.0127 76.404C87.0127 78.069 88.0807 79.1686 89.7142 79.1686C90.4367 79.1686 91.0021 78.9801 91.2848 78.8544L91.0963 78.1318Z" fill="white"/>
<path d="M94.646 71.3145L93.6722 72.9167H94.3633L95.714 71.3145H94.646ZM95.2428 77.2521C95.2428 77.3463 95.2428 77.4406 95.2114 77.5663C95.0543 78.0375 94.5831 78.4773 93.8921 78.4773C93.3895 78.4773 92.9811 78.1946 92.9811 77.5348C92.9811 76.4981 94.2062 76.2782 95.2742 76.3096V77.2521H95.2428ZM96.1852 75.7441C96.1852 74.676 95.7768 73.545 94.112 73.545C93.4209 73.545 92.7612 73.7335 92.3214 74.0162L92.5413 74.676C92.9183 74.4246 93.4523 74.2676 93.9549 74.2676C95.0543 74.2676 95.18 75.0844 95.18 75.5242V75.6499C93.0753 75.6499 91.9131 76.341 91.9131 77.6605C91.9131 78.4459 92.4785 79.2313 93.5779 79.2313C94.3633 79.2313 94.9287 78.8543 95.2428 78.4145H95.2742L95.3371 79.1057H96.2166C96.1538 78.7287 96.1538 78.2888 96.1538 77.8176V75.7441H96.1852Z" fill="white"/>
<path d="M97.7562 79.0743H98.73V75.807C98.73 75.65 98.7614 75.4615 98.7928 75.3358C98.9813 74.8017 99.4839 74.3305 100.112 74.3305C101.055 74.3305 101.369 75.0531 101.369 75.9327V79.0429H102.342V75.807C102.342 73.9535 101.18 73.5137 100.426 73.5137C99.5153 73.5137 98.9185 74.0163 98.6357 74.519L98.5729 73.6079H97.6934C97.7248 74.0477 97.7248 74.519 97.7248 75.0845V79.0743H97.7562Z" fill="white"/>
<path d="M107.62 78.1318C107.337 78.2575 106.96 78.3832 106.426 78.3832C105.358 78.3832 104.541 77.5978 104.541 76.3411C104.541 75.2101 105.201 74.2991 106.457 74.2991C106.992 74.2991 107.368 74.4247 107.588 74.5504L107.808 73.7964C107.526 73.6393 107.023 73.5137 106.457 73.5137C104.698 73.5137 103.536 74.7389 103.536 76.404C103.536 78.069 104.604 79.1686 106.238 79.1686C106.96 79.1686 107.526 78.9801 107.808 78.8544L107.62 78.1318Z" fill="white"/>
<path d="M109.379 75.8385C109.442 75.1473 109.881 74.2362 110.887 74.2362C111.986 74.2362 112.269 75.2101 112.237 75.8385H109.379ZM113.18 76.5296C113.211 76.404 113.211 76.2783 113.211 76.0584C113.211 75.0531 112.74 73.5137 110.981 73.5137C109.41 73.5137 108.437 74.8017 108.437 76.4354C108.437 78.069 109.442 79.1686 111.107 79.1686C111.955 79.1686 112.583 78.9801 112.929 78.823L112.74 78.1318C112.395 78.2889 111.955 78.4146 111.232 78.4146C110.227 78.4146 109.41 77.8805 109.379 76.5296H113.18Z" fill="white"/>
<path d="M114.405 79.0743H115.378V76.184C115.378 76.027 115.378 75.8699 115.41 75.7128C115.535 74.9588 116.038 74.4562 116.729 74.4562C116.855 74.4562 116.98 74.4562 117.075 74.4876V73.5451C116.98 73.5451 116.918 73.5137 116.792 73.5137C116.132 73.5137 115.535 73.9849 115.284 74.7075H115.253L115.221 73.6393H114.342C114.373 74.142 114.373 74.6761 114.373 75.3358V79.0743H114.405Z" fill="white"/>
<path d="M87.6725 63.9314C83.4632 63.9314 80.7617 62.2349 79.568 58.8106C79.0968 57.4911 78.877 56.1088 78.877 54.6636V43.4795H84.8453V54.0981C84.8453 55.5119 85.2851 56.6429 86.1647 57.4597C86.8557 58.1194 87.8609 58.4336 89.1803 58.4336H106.363V63.9314H87.6725Z" fill="white"/>
</svg>
